<svg width="418" height="96" viewBox="0 0 418 96" fill="none" xmlns="http://www.w3.org/2000/svg">
<path d="M16.7 74.4C11.8333 74.4 7.96665 73.1667 5.09999 70.7C2.23332 68.1667 0.799988 64.7667 0.799988 60.5C0.799988 55.3667 2.66665 51.3333 6.39999 48.4C10.1333 45.4667 15.2333 43.9667 21.7 43.9C23.9 43.9 26.1 44.1333 28.3 44.6C30.5667 45 32.7333 45.5667 34.8 46.3L35.3 43.8C35.9667 40.7333 35.4333 38.4667 33.7 37C32.0333 35.5333 29.2 34.8 25.2 34.8C23.4667 34.8 21.5333 35.0333 19.4 35.5C17.3333 35.9 14.9 36.5333 12.1 37.4L8.49999 26C12.5 24.5333 16.2333 23.4667 19.7 22.8C23.1667 22.0667 26.4333 21.7 29.5 21.7C37.6333 21.7 43.6333 23.6667 47.5 27.6C51.3667 31.5333 52.5667 36.9 51.1 43.7L44.5 74H28.8L29.8 69.6C27.3333 71.3333 25.1 72.5667 23.1 73.3C21.1 74.0333 18.9667 74.4 16.7 74.4ZM15.3 59.2C15.3 60.6667 15.9667 61.8333 17.3 62.7C18.7 63.5667 20.6333 64 23.1 64C24.5667 64 26 63.8333 27.4 63.5C28.8 63.1 30.1333 62.5333 31.4 61.8L33 54.5C31.7333 54.1667 30.3 53.9 28.7 53.7C27.1 53.5 25.4667 53.4 23.8 53.4C21.0667 53.4 18.9667 53.9 17.5 54.9C16.0333 55.9 15.3 57.3333 15.3 59.2Z" fill="#16302B"/>
<path d="M80.0312 61.1C81.8979 61.1 83.6312 60.7667 85.2312 60.1C86.8979 59.3667 88.4312 58.2667 89.8312 56.8L97.6312 66.9C94.9646 69.5667 91.8979 71.6 88.4312 73C84.9646 74.4 81.3312 75.1 77.5312 75.1C74.1312 75.1 70.9646 74.5 68.0312 73.3C65.1646 72.1 62.6646 70.4667 60.5312 68.4C58.4646 66.3333 56.8312 63.8667 55.6312 61C54.4312 58.0667 53.8312 54.9 53.8312 51.5C53.8312 47.3667 54.5646 43.4667 56.0312 39.8C57.4979 36.1333 59.4979 32.9667 62.0312 30.3C64.5646 27.6333 67.5646 25.5333 71.0312 24C74.4979 22.4 78.1979 21.6 82.1312 21.6C86.7312 21.6 90.8979 22.5667 94.6312 24.5C98.4312 26.4333 101.431 29.1333 103.631 32.6L92.4312 41.8C91.2312 39.6667 89.7646 38.1 88.0312 37.1C86.2979 36.0333 84.2312 35.5 81.8312 35.5C78.4312 35.5 75.5312 36.9333 73.1312 39.8C70.7979 42.6667 69.6312 46.1 69.6312 50.1C69.6312 53.5 70.5646 56.2 72.4312 58.2C74.2979 60.1333 76.8312 61.1 80.0312 61.1Z" fill="#16302B"/>
<path d="M126.375 61.1C128.242 61.1 129.975 60.7667 131.575 60.1C133.242 59.3667 134.775 58.2667 136.175 56.8L143.975 66.9C141.308 69.5667 138.242 71.6 134.775 73C131.308 74.4 127.675 75.1 123.875 75.1C120.475 75.1 117.308 74.5 114.375 73.3C111.508 72.1 109.008 70.4667 106.875 68.4C104.808 66.3333 103.175 63.8667 101.975 61C100.775 58.0667 100.175 54.9 100.175 51.5C100.175 47.3667 100.908 43.4667 102.375 39.8C103.842 36.1333 105.842 32.9667 108.375 30.3C110.908 27.6333 113.908 25.5333 117.375 24C120.842 22.4 124.542 21.6 128.475 21.6C133.075 21.6 137.242 22.5667 140.975 24.5C144.775 26.4333 147.775 29.1333 149.975 32.6L138.775 41.8C137.575 39.6667 136.108 38.1 134.375 37.1C132.642 36.0333 130.575 35.5 128.175 35.5C124.775 35.5 121.875 36.9333 119.475 39.8C117.142 42.6667 115.975 46.1 115.975 50.1C115.975 53.5 116.908 56.2 118.775 58.2C120.642 60.1333 123.175 61.1 126.375 61.1Z" fill="#16302B"/>
<path d="M191.819 68.3C188.552 70.7 185.319 72.4333 182.119 73.5C178.919 74.5667 175.452 75.1 171.719 75.1C168.052 75.1 164.652 74.5 161.519 73.3C158.452 72.1 155.819 70.4333 153.619 68.3C151.419 66.1 149.685 63.5 148.419 60.5C147.152 57.5 146.519 54.2333 146.519 50.7C146.519 46.7667 147.252 43.0333 148.719 39.5C150.252 35.9667 152.285 32.9 154.819 30.3C157.352 27.6333 160.319 25.5333 163.719 24C167.119 22.4 170.719 21.6 174.519 21.6C181.185 21.6 186.585 23.7667 190.719 28.1C194.919 32.3667 197.019 37.9 197.019 44.7C197.019 46.2333 196.952 47.6333 196.819 48.9C196.752 50.1 196.619 51.2333 196.419 52.3H161.819C162.285 55.3 163.552 57.7333 165.619 59.6C167.752 61.4 170.352 62.3 173.419 62.3C175.352 62.3 177.152 62 178.819 61.4C180.485 60.7333 181.919 59.7667 183.119 58.5L191.819 68.3ZM173.619 34.3C171.152 34.3 168.952 35.1333 167.019 36.8C165.152 38.4 163.752 40.5333 162.819 43.2H183.019C182.619 40.4667 181.585 38.3 179.919 36.7C178.252 35.1 176.152 34.3 173.619 34.3Z" fill="#16302B"/>
<path d="M191.12 95.5L206.82 22.4H222.52L221.52 27.6C223.253 25.8667 225.253 24.5333 227.52 23.6C229.853 22.6 232.253 22.1 234.72 22.1C237.453 22.1 239.986 22.7333 242.32 24C244.72 25.2 246.786 26.8667 248.52 29C250.253 31.0667 251.62 33.5667 252.62 36.5C253.62 39.3667 254.12 42.4333 254.12 45.7C254.12 49.6333 253.42 53.3667 252.02 56.9C250.686 60.3667 248.82 63.4 246.42 66C244.086 68.5333 241.32 70.5667 238.12 72.1C234.986 73.5667 231.62 74.3 228.02 74.3C224.753 74.3 221.853 73.6333 219.32 72.3C216.853 70.9 214.853 68.8667 213.32 66.2L207.02 95.5H191.12ZM227.72 35.4C226.12 35.4 224.62 35.7 223.22 36.3C221.82 36.8333 220.486 37.6667 219.22 38.8L215.52 56C216.586 57.4667 217.986 58.6667 219.72 59.6C221.52 60.4667 223.453 60.9 225.52 60.9C229.253 60.9 232.353 59.5667 234.82 56.9C237.353 54.2333 238.62 50.9333 238.62 47C238.62 43.6 237.586 40.8333 235.52 38.7C233.453 36.5 230.853 35.4 227.72 35.4Z" fill="#16302B"/>
<path d="M260.466 57.2L265.266 34.9H255.466L258.266 22.4H267.866L270.966 8.09999L287.566 4.8L283.766 22.4H297.366L294.566 34.9H281.066L276.866 54.7C276.333 57.0333 276.533 58.7333 277.466 59.8C278.4 60.8 280.166 61.3 282.766 61.3C283.566 61.3 284.333 61.2667 285.066 61.2C285.8 61.0667 287 60.8333 288.666 60.5L285.866 73.5C284.6 73.8333 283.033 74.1 281.166 74.3C279.366 74.5 277.566 74.6 275.766 74.6C269.633 74.6 265.233 73.1 262.566 70.1C259.966 67.1 259.266 62.8 260.466 57.2Z" fill="#16302B"/>
<path d="M338.565 68.3C335.298 70.7 332.065 72.4333 328.865 73.5C325.665 74.5667 322.198 75.1 318.465 75.1C314.798 75.1 311.398 74.5 308.265 73.3C305.198 72.1 302.565 70.4333 300.365 68.3C298.165 66.1 296.432 63.5 295.165 60.5C293.898 57.5 293.265 54.2333 293.265 50.7C293.265 46.7667 293.998 43.0333 295.465 39.5C296.998 35.9667 299.032 32.9 301.565 30.3C304.098 27.6333 307.065 25.5333 310.465 24C313.865 22.4 317.465 21.6 321.265 21.6C327.931 21.6 333.332 23.7667 337.465 28.1C341.665 32.3667 343.765 37.9 343.765 44.7C343.765 46.2333 343.698 47.6333 343.565 48.9C343.498 50.1 343.365 51.2333 343.165 52.3H308.565C309.032 55.3 310.298 57.7333 312.365 59.6C314.498 61.4 317.098 62.3 320.165 62.3C322.098 62.3 323.898 62 325.565 61.4C327.232 60.7333 328.665 59.7667 329.865 58.5L338.565 68.3ZM320.365 34.3C317.898 34.3 315.698 35.1333 313.765 36.8C311.898 38.4 310.498 40.5333 309.565 43.2H329.765C329.365 40.4667 328.332 38.3 326.665 36.7C324.998 35.1 322.898 34.3 320.365 34.3Z" fill="#16302B"/>
<path d="M377.266 74L378.266 69.2C376.599 70.8 374.632 72.0667 372.366 73C370.099 73.8667 367.732 74.3 365.266 74.3C362.532 74.3 359.966 73.7 357.566 72.5C355.232 71.2333 353.199 69.5667 351.466 67.5C349.732 65.3667 348.366 62.8667 347.366 60C346.366 57.0667 345.866 53.9667 345.866 50.7C345.866 46.7667 346.532 43.0667 347.866 39.6C349.266 36.0667 351.132 33.0333 353.466 30.5C355.866 27.9 358.632 25.8667 361.766 24.4C364.966 22.8667 368.366 22.1 371.966 22.1C375.099 22.1 377.899 22.7667 380.366 24.1C382.899 25.3667 384.966 27.2 386.566 29.6L392.266 2.5L408.566 0L392.966 74H377.266ZM361.466 49.4C361.466 52.7333 362.466 55.5 364.466 57.7C366.532 59.9 369.132 61 372.266 61C373.866 61 375.332 60.7333 376.666 60.2C377.999 59.6667 379.299 58.8333 380.566 57.7L384.366 39.8C383.232 38.4667 381.799 37.4333 380.066 36.7C378.332 35.9 376.466 35.5 374.466 35.5C370.799 35.5 367.699 36.8333 365.166 39.5C362.699 42.1667 361.466 45.4667 361.466 49.4Z" fill="#16302B"/>
<path d="M409.554 56.2C411.754 56.2 413.587 57 415.054 58.6C416.521 60.2 417.254 62.1667 417.254 64.5C417.254 67.3 416.254 69.7667 414.254 71.9C412.254 74.0333 409.954 75.1 407.354 75.1C405.087 75.1 403.187 74.3 401.654 72.7C400.121 71.1 399.354 69.1333 399.354 66.8C399.354 63.9333 400.354 61.4667 402.354 59.4C404.421 57.2667 406.821 56.2 409.554 56.2Z" fill="#16302B"/>
</svg>
