<svg width="750" height="287" viewBox="0 0 750 287" fill="none" xmlns="http://www.w3.org/2000/svg">
<g clip-path="url(#clip0)">
<path d="M0 161.123C2.21442 161.275 4.42883 161.466 6.66234 161.6C12.0266 161.905 17.3908 162.343 22.755 162.458C27.2411 162.458 31.7463 162.191 36.2515 162.172C40.0695 162.172 44.0402 162.706 47.8772 162.401C54.1461 161.96 60.4434 162.645 66.4707 164.422C71.4556 165.71 76.5952 166.301 81.7425 166.177C89.6423 166.009 97.4935 164.895 105.128 162.858C111.332 161.371 117.593 160.207 123.797 158.796C126.647 158.155 129.458 157.353 132.216 156.393C138.153 154.314 144.013 152.044 149.912 149.908C150.561 149.713 151.239 149.629 151.917 149.66C168.868 149.66 185.801 149.66 202.753 149.66C203.652 149.675 204.538 149.882 205.352 150.267C206.165 150.652 206.886 151.206 207.468 151.892C211.807 156.787 214.666 162.812 215.715 169.267C216.097 170.983 216.421 172.719 216.841 174.74H207.812V262.359L179.043 263.617V257.285C179.043 252.174 179.043 247.063 179.043 242.028C179.167 240.813 179.652 239.664 180.437 238.728C183.071 235.371 185.457 231.995 185.4 227.456C185.343 222.917 185.133 218.817 185.4 214.525C185.707 207.022 187.262 199.623 190.001 192.63C191.642 188.72 193.494 184.887 195.231 181.015C195.443 180.626 195.573 180.198 195.613 179.756C195.613 172.223 193.418 165.395 186.966 161.123C182.938 158.453 177.955 157.308 173.603 155.134C169.25 152.96 165.967 156.107 162.569 157.671C156.04 160.608 149.721 164.136 143.04 166.635C136.358 169.133 129.486 170.449 122.786 172.566C115.264 174.988 107.514 174.817 99.8778 174.798C69.4996 174.798 39.115 174.798 8.72404 174.798H0V161.123Z" fill="white"/>
<path d="M0 149.222C25.7712 149.222 51.5425 149.222 77.2946 149.222C81.4562 149.222 85.5987 150.194 89.7602 150.232C95.7353 150.232 101.71 149.946 107.686 149.718C111.103 149.584 114.52 149.184 117.937 149.126C123.727 149.025 129.524 149.025 135.328 149.126C138.673 149.188 142.01 149.494 145.312 150.042C142.066 151.262 138.859 152.597 135.576 153.646C132.941 154.486 130.192 155.001 127.501 155.668C121.392 157.175 115.321 158.796 109.194 160.188C100.756 162.095 92.3374 164.193 83.6324 164.422C80.8418 164.422 78.0546 164.231 75.2902 163.85C64.4853 162.649 53.9096 159.807 42.8375 160.493C33.2926 161.066 23.6141 160.76 13.9928 160.493C9.31582 160.398 4.65791 159.635 0 159.177V149.222Z" fill="white"/>
<path d="M561.24 287C563.035 284.344 564.196 281.313 564.637 278.14C565.077 274.966 564.783 271.734 563.779 268.691C575.233 268.691 586.4 268.29 597.568 268.862C600.186 269.103 602.69 270.048 604.814 271.596C606.938 273.144 608.603 275.238 609.633 277.655C610.856 280.686 611.833 283.811 612.553 287H561.24Z" fill="white"/>
<path d="M540.241 287V246.796C542.456 248.321 544.307 249.523 546.083 250.839C551.608 254.509 556.314 259.282 559.904 264.857C562.443 269.206 564.199 273.993 562.958 279.047C561.948 281.839 560.622 284.508 559.007 287H540.241Z" fill="white"/>
<path d="M460.446 287C460.446 287 460.446 286.828 460.331 286.809C456.399 285.589 456.399 285.589 456.399 281.278C456.399 279.371 456.399 277.311 456.399 275.328C456.399 275.194 456.513 275.061 456.704 274.641C458.044 274.868 459.395 275.021 460.751 275.099C464.447 275.35 468.158 275.287 471.843 274.908C477.134 273.993 482.556 274.155 487.783 275.385C494.75 277.063 501.68 278.99 508.59 280.859C513.726 282.251 518.861 283.662 523.862 285.207C524.473 285.398 524.836 286.371 525.332 287H460.446Z" fill="white"/>
<path d="M327.123 287C326.512 282.766 325.767 278.532 325.347 274.279C324.87 269.53 324.622 264.743 324.431 259.994C324.399 258.786 324.641 257.586 325.137 256.484C326.55 253.337 328.459 252.841 332.907 253.623C334.002 253.74 335.032 254.197 335.854 254.929C336.676 255.661 337.247 256.632 337.488 257.705C340.715 267.241 344.189 276.644 347.568 286.123C347.649 286.41 347.706 286.703 347.74 287H327.123Z" fill="white"/>
<path d="M379.887 287C377.157 286.085 374.466 285.093 371.678 284.311C367.86 283.262 364.043 282.404 360.11 281.469C359.829 281.363 359.577 281.191 359.375 280.969C359.172 280.747 359.025 280.481 358.946 280.191C358.85 276.873 358.946 273.554 358.946 269.873L364.672 274.336C368.933 277.615 374.186 279.344 379.563 279.238C384.45 279.238 389.337 278.932 394.185 279.238C401.096 279.772 407.968 280.782 414.84 281.622C418.048 282.003 421.255 282.461 424.385 282.88L424.557 283.529C421.77 284.368 419.002 285.226 416.196 286.008C414.783 286.409 413.332 286.638 411.901 286.943L379.887 287Z" fill="white"/>
<path d="M256.567 287C258.18 286.104 259.585 284.879 260.69 283.403C261.795 281.927 262.576 280.235 262.981 278.437C263.287 276.987 263.955 275.614 264.317 274.164C264.345 273.568 264.213 272.976 263.936 272.448C263.464 271.018 262.909 269.617 262.275 268.252C261.692 267.001 261.406 265.632 261.439 264.253C261.472 262.874 261.823 261.52 262.466 260.299C263.974 256.599 265.196 252.67 266.532 248.97H267.41C269.758 256.027 272.221 263.045 274.416 270.14C275.473 273.496 276.208 276.944 276.611 280.439C276.606 282.682 276.337 284.916 275.809 287.095L256.567 287Z" fill="white"/>
<path d="M400.428 0C403.577 0.591241 406.765 1.01083 409.858 1.90723C412.609 2.77191 415.311 3.78421 417.952 4.93973C420.59 5.86302 423.178 6.92622 425.702 8.1248C427.771 9.36001 429.76 10.7232 431.658 12.2063L431.563 12.8166C430.799 12.8166 430.055 12.8166 429.291 12.8166C425.39 12.4346 421.468 12.3135 417.551 12.4542C409.61 13.2362 402.852 10.6805 396.361 6.48458C392.543 4.02426 388.382 2.1361 384.373 0H400.428Z" fill="white"/>
<path d="M179.139 287C179.444 286.542 179.654 285.913 180.074 285.646C186.143 281.941 192.722 279.146 199.603 277.349C202.256 276.682 204.891 275.919 208.002 275.08V286.981L179.139 287Z" fill="white"/>
<path d="M614.386 287C613.718 284.406 613.202 281.774 612.343 279.238C610.675 274.738 607.406 271.01 603.161 268.767H615.302V287H614.386Z" fill="white"/>
<path d="M358.735 287L358.964 282.575L373.854 287H358.735Z" fill="white"/>
<path d="M185.171 104.249C175.626 101.236 166.387 97.9363 156.345 100.835V82.0109C160.431 81.5341 164.592 81.0191 168.773 80.5423C172.954 80.0655 177.631 79.7222 182.04 79.1119C186.45 78.5016 190.65 77.7578 194.907 76.8423C203.104 75.0323 211.066 72.2869 218.635 68.6603C222.453 66.7531 226.1 64.369 230.089 62.9386C235.129 61.066 240.34 59.6926 245.648 58.8381C250.252 58.4817 254.875 58.4243 259.488 58.6664C261.11 58.6664 262.733 58.3231 264.489 58.1133C262.828 63.835 257.96 70.167 246.449 74.6871L251.985 76.8995C249.427 79.0356 246.888 80.8856 244.712 83.098C243.426 84.5492 242.382 86.1978 241.62 87.9805C241.111 89.0827 240.966 90.3178 241.207 91.5075C241.447 92.6971 242.059 93.7797 242.956 94.5986C244.929 96.655 247.047 98.5672 249.294 100.32C253.15 103.38 256.279 107.256 258.457 111.668C259.358 113.812 259.919 116.084 260.118 118.401C260.499 121.395 260.557 124.447 260.652 127.479C260.652 130.092 260.518 132.705 260.652 135.299C260.936 137.133 261.357 138.944 261.912 140.715H242.822C243.7 136.348 244.731 132.305 245.304 128.185C246.258 121.738 245.056 118.325 238.699 115.159C237.987 114.727 237.24 114.357 236.465 114.052C235.244 113.69 235.053 112.946 234.919 111.745C234.536 106.877 233.899 102.032 233.01 97.2306C231.827 91.5089 227.646 88.7816 222.129 87.9615C220.037 87.645 217.926 87.4792 215.81 87.4656C205.654 87.4656 195.518 87.4656 185.133 87.4656L185.171 104.249Z" fill="white"/>
<path d="M265.635 30.6301C255.727 30.6301 245.972 30.7446 236.236 30.6301C233.732 30.2755 231.256 29.74 228.829 29.028C225.22 28.3267 221.575 27.8237 217.91 27.5213C213.577 27.2543 209.205 27.6739 204.872 27.4069C198.61 27.0064 192.349 26.4724 186.164 25.4997C178.998 24.6915 171.951 23.053 165.165 20.6172C162.511 19.5682 159.858 18.5001 157.262 17.3177C156.993 17.1552 156.765 16.9331 156.596 16.6685C156.428 16.4038 156.322 16.1039 156.288 15.7919C156.288 11.6913 156.288 7.59078 156.288 3.16601C160.984 3.7191 165.528 2.28868 170.014 4.76808C172.862 6.12292 175.923 6.97469 179.062 7.28562C187.233 8.52532 195.46 9.5743 203.669 10.5279C209.969 11.2717 216.306 11.8248 222.644 12.4351C228.161 12.931 233.678 13.5032 239.214 13.7511C244.75 13.9991 249.981 13.7511 255.345 13.98C256.319 13.9921 257.256 14.3582 257.98 15.0099C261.74 19.0687 264.419 24.0074 265.768 29.3713C265.761 29.794 265.716 30.2153 265.635 30.6301Z" fill="white"/>
<path d="M116.982 73.2758C118.796 78.2727 120.59 83.1171 122.251 88.0187C122.311 88.4026 122.274 88.7953 122.144 89.1615C122.014 89.5277 121.795 89.8559 121.507 90.1166C115.929 94.0302 110.157 97.6586 104.211 100.988C99.7711 103.112 95.0834 104.675 90.2565 105.641C86.5046 106.509 82.6458 106.824 78.8026 106.576C71.1667 106.042 63.5308 105.127 55.8949 104.001C49.2898 103.009 42.742 101.617 36.1942 100.187C32.9108 99.4811 29.6846 98.4512 26.4775 97.4404C25.9621 97.2878 25.2176 96.2961 25.3321 95.9527C27.1075 90.7842 28.9974 85.6728 30.8491 80.6949C36.576 82.1825 42.1121 83.8037 47.7245 84.9862C52.7833 86.0733 57.9948 86.4738 62.9963 87.5609C69.9283 88.751 76.9691 89.1858 83.9951 88.8579C90.0847 88.8579 95.2771 86.3022 100.279 83.1362C105.28 79.9702 110.74 76.6707 115.99 73.4474C116.295 73.2567 116.543 73.3139 116.982 73.2758Z" fill="white"/>
<path d="M441.07 126.43C438.048 123.655 434.278 121.824 430.227 121.166C427.275 120.901 424.323 121.677 421.884 123.36C416.959 126.373 412.34 130.016 407.109 132.343C403.406 133.983 398.939 134.078 394.758 134.536C389.184 135.127 383.59 135.547 377.997 135.757C373.816 135.909 369.636 135.604 365.455 135.509C364.923 135.438 364.384 135.438 363.852 135.509C357.189 137.206 353.314 132.762 349.267 128.814C347.714 127.281 346.424 125.502 345.449 123.55C348.713 123.913 351.978 124.18 355.223 124.637C360.475 125.461 365.821 125.506 371.087 124.771C376.298 123.97 381.49 123.131 386.664 122.177C388.859 121.777 390.978 120.842 393.173 120.442C396.571 119.831 400.008 119.469 403.425 119.011C408.336 118.49 412.984 116.533 416.787 113.385C418.273 112.248 419.865 111.258 421.541 110.429C425.297 108.106 428.13 104.554 429.559 100.378C432.004 93.7955 433.12 86.7947 432.842 79.7794C432.739 78.5107 432.701 77.2376 432.727 75.965C432.818 75.6629 432.983 75.3881 433.206 75.1651C433.429 74.9421 433.704 74.7779 434.006 74.6871C434.326 74.7067 434.636 74.8016 434.911 74.9641C435.187 75.1265 435.42 75.3519 435.591 75.6217C437.939 80.0655 440.192 84.5666 442.482 88.9723C444.391 92.7867 446.3 96.4105 448.209 100.187C448.929 101.468 449.303 102.914 449.297 104.383C448.841 111.54 446.496 118.45 442.501 124.409C442.139 125.114 441.662 125.686 441.07 126.43Z" fill="white"/>
<path d="M735.644 174.855H732.819C710.14 174.855 687.481 174.855 664.802 174.855C663.086 174.77 661.416 174.273 659.934 173.405C655.62 171.021 651.325 168.561 647.239 165.776C643.154 162.992 639.012 160.055 637.313 155.096C636.762 153.125 636.316 151.126 635.977 149.107H653.711C663.103 149.107 672.476 149.107 681.868 149.107C683.404 149.293 684.841 149.961 685.973 151.014C692.659 156.606 700.532 160.604 708.995 162.706C714.589 163.943 719.921 166.157 724.744 169.248C727.909 171.103 731.223 172.691 734.652 173.997C735.009 174.251 735.341 174.538 735.644 174.855Z" fill="white"/>
<path d="M313.073 267.241L308.987 249.103L311.985 248.894L303.528 223.298C302.115 219.045 300.626 214.83 299.328 210.539C299.152 209.41 299.114 208.264 299.213 207.125C298.89 201.303 299.365 195.463 300.626 189.769C300.874 188.739 301.199 188.034 302.535 188.091C305.36 188.205 308.262 188.091 311.011 188.091C312.137 188.091 312.634 188.396 313.073 189.598C320.009 209.102 327.008 228.588 334.071 248.054L335.56 252.25C334.718 252.126 333.887 251.928 333.079 251.659C332.028 251.25 330.897 251.086 329.773 251.179C328.649 251.273 327.561 251.622 326.592 252.2C325.623 252.777 324.8 253.569 324.184 254.513C323.568 255.457 323.176 256.529 323.038 257.648C322.236 265.277 323.725 272.524 324.431 279.943C324.665 281.842 324.703 283.759 324.546 285.665L320.709 274.641C320.008 272.914 319.422 271.143 318.952 269.339C318.609 267.584 317.731 267.146 316.146 267.298C315.121 267.332 314.095 267.313 313.073 267.241Z" fill="white"/>
<path d="M123.358 91.0893C125.267 96.544 127.176 101.884 129.181 107.244C129.868 109.151 130.612 111.058 131.09 112.965C131.14 113.31 131.109 113.662 130.999 113.993C130.89 114.324 130.705 114.625 130.46 114.872C123.932 119.274 116.81 122.722 109.308 125.114C107.7 125.437 106.062 125.59 104.421 125.572L100.088 112.527H87.4312C75.6719 112.527 63.9126 112.527 52.1723 112.527C50.5497 112.527 49.7479 112.889 49.3852 114.605C48.9652 116.646 48.0489 118.592 47.4762 120.632C47.4472 120.915 47.3554 121.187 47.2076 121.429C47.0598 121.672 46.8597 121.878 46.622 122.034C46.3842 122.189 46.1147 122.289 45.8331 122.327C45.5516 122.365 45.2651 122.34 44.9946 122.253C40.1839 121.681 35.4497 121.071 30.5818 120.651C27.5465 120.403 24.4921 120.537 21.4378 120.403C19.9487 120.403 18.4788 120.079 16.818 119.869C19.2233 113.042 21.5141 106.519 23.9576 99.9198C24.1294 99.443 25.4275 99.0234 26.0766 99.1569C34.4761 101.064 42.7801 103.486 51.2178 105.165C57.4793 106.404 63.8935 106.881 70.3076 107.568C74.0992 108.134 77.9279 108.414 81.7615 108.407C89.8365 108.064 97.816 106.843 104.898 102.514C109.747 99.5574 114.443 96.4295 119.311 93.3971C120.571 92.6342 121.869 91.9285 123.358 91.0893Z" fill="white"/>
<path d="M562.901 140.525C563.406 138.088 564.089 135.691 564.943 133.354C566.852 129.31 569.067 125.496 570.919 121.471C573.492 116.14 574.313 110.132 573.267 104.306C572.789 101.732 572.465 99.0997 571.759 96.6775C570.406 91.8104 567.927 87.3288 564.523 83.5939C563.942 82.9242 563.605 82.0768 563.569 81.1908C563.569 69.3659 563.569 57.5411 563.569 45.7163C563.599 44.6437 564.046 43.625 564.816 42.877C565.587 42.129 566.618 41.7107 567.692 41.7111H579.834C580.073 41.7492 580.309 41.8066 580.54 41.8828C579.757 45.0488 578.726 48.1576 578.211 51.4189C577.428 56.3205 576.779 61.2602 576.435 66.1999C576.34 68.148 577.009 70.0564 578.299 71.52C579.589 72.9837 581.4 73.8871 583.346 74.0387C583.613 79.3408 584.091 84.7001 584.129 90.0594C584.243 104.936 584.129 119.812 584.129 134.689C584.183 135.447 584.145 136.209 584.014 136.958C583.193 140.143 582.506 140.639 579.165 140.639L562.901 140.525Z" fill="white"/>
<path d="M359.194 201.308C360.549 203.425 361.694 205.447 363.012 207.297C366.867 212.046 371.705 215.904 377.195 218.607C377.778 218.842 378.262 219.269 378.568 219.817C378.873 220.365 378.982 221.002 378.875 221.62C378.78 223.051 378.875 224.481 378.875 226.121C384.602 226.121 390.062 225.95 395.522 226.121C398.825 226.325 402.107 226.797 405.334 227.533C408.541 228.2 411.652 229.44 414.879 230.05C418.697 230.889 422.724 231.442 426.829 232.148L426.027 233.617C429.667 234.996 432.869 237.327 435.297 240.367C437.726 243.407 439.291 247.044 439.829 250.896C436.927 250.534 434.102 250.267 431.448 249.847C426.676 249.141 421.904 248.34 417.169 247.578C416.725 247.553 416.293 247.423 415.909 247.196C412.397 244.392 408.273 244.068 403.959 243.782C400.144 243.498 396.369 242.814 392.696 241.741C385.728 239.834 378.78 237.641 372.003 235.085C367.866 233.309 363.86 231.244 360.014 228.906C359.693 228.692 359.422 228.41 359.221 228.081C359.02 227.751 358.893 227.382 358.85 226.999C358.85 218.607 358.85 210.215 358.85 201.823C358.888 201.747 358.984 201.632 359.194 201.308Z" fill="white"/>
<path d="M516.684 102.418L515.902 99.6146C517.89 99.0232 520.026 99.1891 521.899 100.08C523.771 100.972 525.246 102.525 526.038 104.44C526.682 106.392 526.775 108.484 526.306 110.486C525.714 114.014 524.664 117.447 523.862 120.766H503.474C498.816 120.766 494.159 120.766 489.501 120.766C487.687 120.766 486.694 121.128 486.37 123.016C486.045 124.905 485.587 125.4 483.506 124.256C480.028 122.271 477.137 119.402 475.126 115.941C473.465 113.27 471.785 110.581 470.163 107.892C469.929 107.474 469.861 106.984 469.972 106.519C472.072 100.587 474.21 94.6558 476.348 88.7244C476.577 88.5146 476.348 88.5908 476.348 88.7244L494.426 97.6883L493.089 102.399L516.684 102.418Z" fill="white"/>
<path d="M179.272 174.759H123.263V174.416C125.84 173.653 128.417 172.852 131.013 172.127C133.609 171.403 136.263 170.926 138.783 170.068C142.811 168.714 146.839 167.283 150.752 165.586C154.665 163.888 158.025 161.981 161.633 160.131C163.638 159.101 165.661 158.09 167.627 157.022C169.315 156.282 171.222 156.221 172.953 156.851C177.656 157.833 182.102 159.782 186.011 162.572C188.857 164.417 191.097 167.056 192.455 170.162C193.812 173.268 194.227 176.703 193.647 180.043C193.189 182.922 191.032 185.535 189.829 188.32C187.387 193.743 185.815 199.516 185.171 205.428C184.624 210.234 184.172 215.053 183.816 219.885C183.626 222.208 183.626 224.542 183.816 226.865C184.197 231.08 181.639 234.017 179.31 237.221L179.272 174.759Z" fill="white"/>
<path d="M456.399 242.008C457.162 242.256 457.506 242.39 457.831 242.466C462.565 243.534 464.932 241.913 464.512 237.164C464.016 231.576 462.928 226.026 461.935 220.495C460.599 213.057 459.09 205.638 457.697 198.199C457.105 194.976 456.647 191.715 456.093 188.263H476.367C476.367 191.333 476.519 194.423 476.367 197.494C476.061 202.643 475.355 207.774 477.302 212.752C477.421 213.192 477.46 213.651 477.417 214.106C477.417 227.596 477.417 241.087 477.417 254.577C477.393 254.992 477.349 255.406 477.283 255.817C475.699 255.664 474.229 255.55 472.74 255.359C468.273 254.768 463.806 254.119 459.377 253.566C457.468 253.318 456.227 252.727 456.418 250.362C456.571 247.711 456.399 244.984 456.399 242.008Z" fill="white"/>
<path d="M393.25 174.836C388.42 174.836 383.705 174.836 378.818 174.836C378.207 174.836 377.329 173.73 377.119 172.929C376.508 170.773 376.164 168.561 375.706 166.368C375.248 164.174 374.809 162.267 374.351 160.226C373.972 158.296 374.27 156.294 375.195 154.558C376.12 152.821 377.615 151.455 379.429 150.69C381.271 149.84 383.262 149.354 385.289 149.26C398.652 149.05 412.015 149.088 425.378 148.897C430.093 148.897 432.727 152.044 435.171 155.096C438.249 158.6 440.482 162.763 441.7 167.264C442.234 169.648 442.521 172.089 442.979 174.893C440.23 174.893 438.054 174.893 435.858 174.893C435.572 174.862 435.298 174.762 435.059 174.603C434.82 174.443 434.623 174.229 434.484 173.978C432.04 164.937 425.111 161.314 416.864 159.12C411.489 157.6 405.917 156.893 400.332 157.022C397.049 157.137 392.582 160.837 392.696 164.651C392.696 166.349 392.543 168.065 392.696 169.763C392.849 171.46 393.021 172.89 393.25 174.836Z" fill="white"/>
<path d="M443.112 31.4693C437.214 28.7801 431.315 25.862 425.244 23.4017C421.501 22.0685 417.675 20.9791 413.79 20.1403C409.782 19.1104 404.933 20.9032 404.646 26.129C398.538 23.3445 392.085 23.745 385.671 23.7831C384.715 23.8418 383.763 23.6091 382.941 23.1156C377.214 18.7481 370.857 15.0671 366.104 9.45985C364.844 7.97221 363.622 6.44643 361.923 4.34847C367.803 2.97527 373.129 1.39227 378.57 0.629375C380.95 0.626313 383.284 1.28682 385.308 2.53661C390.73 5.28302 395.961 8.42995 401.382 11.2145C406.043 13.7504 411.406 14.6948 416.654 13.9037C418.076 13.8235 419.502 13.8874 420.911 14.0944C424.213 14.247 427.497 14.5522 430.799 14.514C431.813 14.4182 432.833 14.5938 433.756 15.0229C434.679 15.452 435.47 16.119 436.049 16.9553C439.403 21.2408 441.81 26.1873 443.112 31.4693Z" fill="white"/>
<path d="M510.786 84.1279L521.285 85.7681C524.855 86.3212 528.425 86.798 531.956 87.4846C532.423 87.5802 532.863 87.7743 533.248 88.0539C533.634 88.3335 533.955 88.6922 534.19 89.1058C538.599 101.14 542.837 113.232 547.228 125.343C547.992 127.441 546.331 128.433 545.586 129.749C543.792 132.953 541.597 135.909 539.649 139.018C539.438 139.533 539.065 139.966 538.586 140.251C538.108 140.536 537.55 140.659 536.996 140.601C534.571 140.429 531.536 141.307 529.894 140.143C528.253 138.98 528.1 135.852 527.317 133.582C526.805 131.773 526.167 130.001 525.408 128.28C523.633 124.828 525.408 121.738 526.019 118.477C526.82 114.663 527.381 110.803 527.699 106.919C527.793 105.694 527.625 104.462 527.204 103.306C526.784 102.151 526.121 101.099 525.261 100.219C524.401 99.3402 523.363 98.6545 522.216 98.2082C521.07 97.7618 519.841 97.5651 518.612 97.6311C515.692 97.6311 514.375 96.7729 513.897 93.9883C513.467 92.3238 512.918 90.6922 512.256 89.1058C511.816 87.5228 511.358 85.9589 510.786 84.1279Z" fill="white"/>
<path d="M358.888 251.754C362.477 254.787 365.474 257.476 368.586 259.936C371.065 262.116 374.174 263.452 377.463 263.751C377.802 263.856 378.111 264.043 378.361 264.296C378.61 264.549 378.794 264.86 378.894 265.2C379.007 266.469 379.007 267.746 378.894 269.015C379.62 269.015 380.288 269.148 380.937 269.148C387.504 269.148 394.071 269.32 400.618 269.148C404.462 268.914 408.287 268.443 412.072 267.737C413.201 267.589 414.242 267.049 415.012 266.211C416.921 263.694 419.212 263.961 421.713 264.647C426.638 266.001 431.525 267.432 436.469 268.691C438.111 269.11 438.206 269.72 437.538 271.056C435.671 275.242 432.514 278.724 428.528 280.992C426.653 281.503 424.676 281.503 422.801 280.992C416.807 280.306 410.755 279.886 404.875 278.627C397.621 277.082 390.367 277.407 383.094 277.407C378.932 277.407 374.675 277.883 370.857 275.919C367.918 274.393 365.379 272.105 362.458 270.522C358.163 268.252 358.64 264.457 358.64 260.661C358.888 257.953 358.888 255.226 358.888 251.754Z" fill="white"/>
<path d="M724.61 134.994C719.115 138.726 712.623 140.72 705.979 140.715C700.557 140.811 695.957 138.427 691.356 136.157C688.351 134.664 685.51 132.862 682.88 130.779C679.472 127.848 677.241 123.783 676.6 119.335C675.168 112.717 670.376 108.121 661.862 109.685C661.621 109.707 661.378 109.707 661.137 109.685C661.137 106.004 661.137 102.285 661.137 98.5847C661.137 98.0316 662.091 97.3641 662.76 97.0017C666.425 94.961 670.109 92.9393 673.87 91.1084C674.33 90.988 674.812 90.9825 675.275 91.0922C675.738 91.202 676.167 91.4236 676.523 91.7378C678.216 93.744 679.766 95.8662 681.162 98.0888C681.546 98.8966 681.711 99.7912 681.639 100.683C681.639 107.93 681.639 115.159 681.639 122.749H683.911C689.638 122.635 695.365 122.444 701.092 122.425C702.061 122.541 702.972 122.947 703.707 123.589C709.738 128.197 716.465 131.816 723.637 134.307C723.923 134.326 724.114 134.593 724.61 134.994Z" fill="white"/>
<path d="M79.3181 50.6179C78.2681 47.5282 77.2564 44.4766 76.1683 41.4632C75.5765 39.8039 76.9509 39.3843 77.8672 39.0792C82.1249 37.6206 85.8746 34.973 88.6721 31.4502C92.2991 27.1208 90.9247 23.8213 86.6295 22.0857C80.9025 19.8543 74.7174 18.5574 68.7232 16.879C66.8142 16.3259 64.6953 15.8682 62.6908 15.2769C60.171 14.5331 57.6893 13.713 55.0549 12.8738L58.472 3.14694C64.9434 3.14694 71.4531 2.76549 77.8863 3.31859C80.7689 3.56653 83.6133 5.47376 86.2668 6.94233C88.8822 8.41812 91.395 10.0684 93.7881 11.8821C94.7997 12.6079 95.5921 13.5976 96.0789 14.7429C98.4842 21.2275 100.82 27.7566 103.085 34.3302C103.183 34.7487 103.176 35.1849 103.067 35.6004C102.957 36.016 102.747 36.3984 102.455 36.7142C95.1626 41.2725 87.813 45.7735 80.6162 50.2746C80.2003 50.4451 79.7639 50.5605 79.3181 50.6179Z" fill="white"/>
<path d="M681.735 41.6539C691.452 41.6539 700.825 41.6539 710.37 41.6539C711.578 41.6125 712.782 41.827 713.901 42.2833C714.971 42.7644 715.86 43.5725 716.44 44.5911C717.251 46.3632 717.89 48.209 718.349 50.103C719.685 55.1762 723.694 57.8272 727.779 60.2494C731.597 62.4999 735.606 64.2737 739.482 66.3526C740.322 66.7447 740.998 67.4199 741.39 68.2598C743.385 74.2907 744.321 80.6204 744.159 86.9697C740.112 85.2913 736.16 83.7465 732.304 82.0109C729.154 80.5996 726.081 79.0166 723.045 77.3573C722.208 76.8417 721.574 76.0537 721.251 75.1258C719.342 69.0417 716.268 63.6824 710.16 60.9169C709.026 60.3399 707.797 59.9716 706.532 59.8298C703.211 59.601 702.6 57.0643 702.085 54.6803C700.863 49.0921 698.267 44.9916 692.196 43.79C688.684 43.2179 685.324 42.455 681.735 41.6539Z" fill="white"/>
<path d="M185.171 59.6391V63.1674C192.139 63.1674 198.973 63.1674 205.807 63.1674C212.641 63.1674 219.284 62.8241 225.737 62.6525C204.738 75.6407 180.857 78.7114 156.403 80.0464V62.7097L185.171 59.6391Z" fill="white"/>
<path d="M435.935 221.239C433.816 220.342 431.926 219.484 430.017 218.721C425.702 217.005 421.35 215.364 417.055 213.629C416.423 213.396 415.908 212.923 415.623 212.313C414.172 207.335 410.202 206.153 405.792 205.962C401.077 205.752 396.247 205.866 391.608 205.847C389.574 205.9 387.582 205.263 385.956 204.041C384.331 202.818 383.167 201.082 382.655 199.115C381.681 195.586 380.937 192.001 380.001 188.072H386.187C388.239 188.214 390.3 188.214 392.353 188.072C394.7 187.684 397.11 187.944 399.32 188.825C401.531 189.706 403.458 191.173 404.895 193.069C408.614 197.037 413.276 200.002 418.448 201.69C420.173 202.395 422.073 202.56 423.893 202.161C425.714 201.763 427.371 200.82 428.642 199.458C429.497 198.511 430.3 197.517 431.048 196.483C437.156 204.207 437.901 212.332 435.935 221.239Z" fill="white"/>
<path d="M686.717 149.088C697.522 149.088 707.983 149.317 718.406 149.088C725.66 148.878 731.578 151.892 737.496 155.306C740.455 156.984 743.777 157.995 746.888 159.444C747.728 159.845 748.95 160.684 748.988 161.352C749.236 165.605 749.198 169.877 749.236 174.13C749.236 174.34 749.065 174.55 748.912 174.855C744.644 175.093 740.373 174.444 736.37 172.948C731.653 171.283 727.164 169.034 723.007 166.253C719.656 164.421 716.082 163.029 712.374 162.115C703.154 159.349 694.124 156.393 686.717 149.088Z" fill="white"/>
<path d="M540.241 204.589C546.117 211.112 552.641 217.023 559.713 222.23C560.686 222.974 560.82 224.805 560.954 226.293C561.068 226.293 561.221 226.56 561.316 226.541C566.547 225.606 569.754 229.402 573.553 231.767C579.013 235.181 584.415 238.709 589.836 242.199C590.39 242.562 590.906 242.981 591.955 243.763C590.657 243.763 589.875 243.897 589.111 243.897C579.738 243.897 570.365 244.068 560.992 243.897C559.642 243.604 558.4 242.944 557.403 241.989C551.969 237.933 546.573 233.833 541.215 229.688C540.942 229.447 540.72 229.155 540.562 228.827C540.405 228.5 540.315 228.144 540.298 227.78C540.146 220.266 540.241 212.732 540.241 204.589Z" fill="white"/>
<path d="M527.718 71.3685C523.671 70.7773 519.853 70.3577 516.112 69.633C512.937 69.0926 509.814 68.2822 506.777 67.2108C500.057 64.6742 493.758 61.3556 490.493 54.4323C489.914 53.0774 489.794 51.5707 490.15 50.1411C490.894 47.3184 491.352 43.6946 493.318 42.1498C495.285 40.6049 498.702 41.692 501.508 41.673C506.09 41.673 510.671 41.673 515.234 41.673C516.684 41.673 517.467 41.9018 518.021 43.5802C520.98 52.239 524.168 60.7453 527.241 69.4232C527.413 69.8046 527.47 70.3196 527.718 71.3685Z" fill="white"/>
<path d="M525.504 283.796C516.131 281.068 507.063 278.456 497.996 275.805C490.918 273.643 483.536 272.645 476.138 272.848C471.747 273.001 467.356 273.478 462.966 273.707C461.911 273.717 460.859 273.595 459.835 273.344C456.399 272.639 456.399 272.619 456.399 269.282C456.399 264.647 456.399 259.994 456.399 254.863L477.398 257.571V268.71H479.956C488.661 268.71 497.366 268.71 506.071 268.71C510.969 268.473 515.871 269.086 520.56 270.521C525.447 272.181 525.542 271.914 525.542 277.178L525.504 283.796Z" fill="white"/>
<path d="M276.248 222.192C279.188 227.285 282.204 232.377 285.087 237.546C286.415 239.884 287.563 242.319 288.523 244.831C288.737 246.145 288.737 247.484 288.523 248.798C290.566 248.474 290.814 250.362 291.272 251.945C292.513 256.179 293.735 260.432 294.88 264.685C294.977 265.534 294.977 266.392 294.88 267.241C291.329 267.241 287.912 267.241 284.495 267.241C282.854 267.241 281.937 267.527 281.479 269.358C280.773 272.162 279.57 274.87 278.52 278.131C278.1 276.815 277.718 275.919 277.508 274.965C275.415 265.524 272.211 256.363 267.963 247.673C267.619 247.024 267.518 246.273 267.677 245.556C270.388 237.927 273.175 230.165 275.962 222.459C276.029 222.344 276.128 222.251 276.248 222.192Z" fill="white"/>
<path d="M661.271 68.2788V44.057C667.393 43.2349 673.594 43.1772 679.73 43.8854C683.3 44.305 686.889 44.7436 690.44 45.3349C692.552 45.5554 694.551 46.3985 696.183 47.7569C697.814 49.1153 699.005 50.9277 699.603 52.9638C700.252 54.9855 700.92 56.9881 701.684 59.2958H681.83V70.1479C675.206 65.1319 668.486 64.4072 661.271 68.2788Z" fill="white"/>
<path d="M298.774 188.129C298.278 194.175 297.61 199.954 297.438 205.733C297.579 208.672 297.93 211.598 298.488 214.487C298.556 215.207 298.478 215.934 298.259 216.623C295.51 225.473 292.742 234.322 289.917 243.324C285.889 235.867 281.937 228.658 278.138 221.372C277.567 220.281 277.418 219.019 277.718 217.825C280.945 208.46 284.362 199.172 287.645 189.827C287.734 189.283 288.035 188.797 288.483 188.475C288.93 188.153 289.487 188.022 290.031 188.11C292.99 188.205 295.892 188.129 298.774 188.129Z" fill="white"/>
<path d="M75.3856 38.4688L73.9921 34.0441C73.4194 39.0792 73.4576 39.4034 69.1624 39.7658C65.8672 40.0047 62.5549 39.8059 59.312 39.1745C55.7804 38.5833 52.3634 37.4008 48.8699 36.5616C47.1709 36.1611 46.77 35.5126 47.4382 33.758C49.8244 27.4641 52.0197 21.094 54.3869 14.4377C58.7775 15.7537 62.9582 17.1079 67.1961 18.2522C71.7968 19.53 76.4738 20.5218 81.0553 21.895C83.3312 22.5513 85.4894 23.5618 87.4504 24.8894C89.3594 26.2626 89.2448 27.693 87.7749 29.6956C84.6824 34.0441 80.2917 36.409 75.3856 38.4688Z" fill="white"/>
<path d="M605.051 149.66C603.505 152.102 601.92 154.505 600.431 156.984C598.102 160.894 595.754 164.804 593.635 168.847C593.536 169.367 593.546 169.901 593.664 170.416C593.782 170.932 594.007 171.417 594.323 171.841C595.18 172.894 596.154 173.847 597.224 174.683C596.327 174.683 595.621 174.817 594.895 174.817H572.942C568.876 174.817 567.883 173.672 567.616 169.515C567.451 165.628 568.823 161.833 571.434 158.949C573.687 156.126 575.672 153.112 577.905 150.29C578.517 149.498 579.415 148.977 580.406 148.84C588.538 148.726 596.69 148.84 604.822 148.84L605.051 149.66Z" fill="white"/>
<path d="M439.944 127.784C432.766 135.871 423.851 139.953 413.962 142.356C404.627 144.625 395.121 144.473 385.69 144.072C377.86 143.687 370.175 141.809 363.05 138.541C362.572 138.315 362.202 137.911 362.019 137.416C365.837 137.416 369.521 137.568 373.263 137.416C380.612 137.054 387.943 136.539 395.273 136.024C398.38 135.991 401.475 135.646 404.513 134.994C408.011 133.953 411.379 132.52 414.554 130.722C417.437 129.139 419.937 126.907 422.686 125C424.628 123.518 427.011 122.729 429.455 122.76C431.898 122.791 434.26 123.64 436.164 125.171L439.944 127.784Z" fill="white"/>
<path d="M739.367 116.837L719.876 110.486C723.19 100.433 723.912 89.7081 721.976 79.3026C724.534 80.447 726.882 81.515 729.23 82.5449C733.678 84.4521 738.088 86.531 742.593 88.2666C743.231 88.4256 743.784 88.8222 744.139 89.3754C744.494 89.9285 744.624 90.5962 744.502 91.2419C744.467 100.025 742.723 108.718 739.367 116.837Z" fill="white"/>
<path d="M341.707 56.1679C344.693 55.8989 347.663 55.4723 350.603 54.8901C355.396 53.7744 360.114 52.3603 364.73 50.656C366.639 49.9313 367.899 47.8524 369.273 46.5746C372.27 48.3292 375.344 50.1983 378.474 51.9339C378.712 52.019 378.931 52.1505 379.117 52.3206C379.304 52.4907 379.455 52.6962 379.561 52.925C379.668 53.1539 379.728 53.4016 379.738 53.6538C379.748 53.906 379.708 54.1577 379.62 54.3942C378.686 59.7922 376.114 64.7727 372.251 68.6603C370.856 69.977 369.265 71.0707 367.536 71.9026C365.715 72.7185 363.786 73.2708 361.809 73.5428C359.631 73.8962 357.399 73.4851 355.49 72.3794C349 68.9231 344.071 63.1261 341.707 56.1679Z" fill="white"/>
<path d="M185.171 124.485C180.15 123.379 175.454 122.12 170.663 121.433C168.72 121.413 166.805 121.899 165.108 122.845C162.187 124.123 159.381 125.744 156.307 127.346C156.307 125 156.307 122.902 156.307 120.804C156.307 115.311 156.307 109.818 156.307 104.345C156.307 102.8 156.823 102.285 158.331 102.056C166.121 100.892 174.081 101.875 181.353 104.898C182.518 105.355 184.369 105.336 184.789 106.137C185.243 107.585 185.373 109.115 185.171 110.619C185.171 115.349 185.171 120.155 185.171 124.485Z" fill="white"/>
<path d="M410.793 89.6398C416.94 82.2397 421.293 74.2103 422.362 64.6932C441.184 70.7201 448.725 80.733 449.087 97.6311C448.152 95.9146 447.178 94.1981 446.3 92.4625C443.57 87.2176 440.879 81.9727 438.111 76.7469C437.492 75.4892 436.722 74.3109 435.82 73.2376C435.54 72.9537 435.197 72.7388 434.82 72.6097C434.442 72.4806 434.039 72.4409 433.644 72.4938C432.861 72.7417 431.735 73.5809 431.735 74.2484C431.372 77.548 431.277 80.8665 431.143 84.1851C430.78 92.5769 429.501 100.664 423.297 107.072C422.238 107.966 421.129 108.8 419.976 109.57C422.705 99.8816 420.682 92.9393 410.793 89.6398Z" fill="white"/>
<path d="M611.771 205.809C611.103 205.809 610.434 205.809 609.862 205.809C599.248 205.809 588.653 205.809 578.039 205.809C576.415 205.709 574.859 205.124 573.572 204.131C567.635 199.611 561.851 194.919 556.009 190.265C555.36 189.75 554.807 189.121 553.948 188.358C554.788 188.358 555.341 188.167 555.857 188.167C563.645 188.167 571.415 188.167 579.203 188.167C580.236 188.226 581.242 188.519 582.143 189.026C589.627 192.942 597.084 196.896 604.517 200.889C607.075 202.262 609.537 203.826 612.038 205.313L611.771 205.809Z" fill="white"/>
<path d="M657.892 174.836H646.056C640.329 174.836 634.755 174.836 629.104 174.836C624.809 174.836 622.175 172.147 619.884 169.114C616.906 165.3 617.631 160.722 618.643 156.374C619.158 154.343 619.841 152.359 620.686 150.442C620.836 150.125 621.056 149.847 621.331 149.629C621.606 149.41 621.927 149.258 622.27 149.184C626.298 149.069 630.307 149.184 634.392 149.184C634.526 157.327 639.069 162.534 645.235 166.558C649.397 169.286 653.692 171.822 657.949 174.454L657.892 174.836Z" fill="white"/>
<path d="M46.3119 123.97L40.9858 140.353H9.5449L14.7564 125.61C16.2454 121.433 16.8563 121.09 21.3042 121.796C22.6513 122 24.0088 122.127 25.3703 122.177C29.8374 122.368 34.3235 122.387 38.7332 122.692C41.1576 122.902 43.5629 123.531 46.3119 123.97Z" fill="white"/>
<path d="M331.132 149.145H334.491C339.531 149.145 344.552 149.145 349.591 149.145C350.088 149.151 350.576 149.267 351.022 149.484C351.468 149.702 351.859 150.016 352.169 150.404C354.421 155.859 356.655 161.352 358.506 166.959C359.057 169.465 359.345 172.022 359.365 174.588C358.545 174.588 357.972 174.798 357.456 174.798C351.959 174.798 346.48 174.798 340.982 174.798C340.385 174.885 339.777 174.734 339.291 174.377C338.805 174.02 338.48 173.486 338.386 172.89C336.725 168.027 334.778 163.24 333.231 158.357C332.162 155.573 331.838 152.578 331.132 149.145Z" fill="white"/>
<path d="M643.326 48.0813C643.326 49.7024 643.326 50.7323 643.326 51.7813C643.326 59.2449 643.326 66.7085 643.326 74.1722C643.326 77.567 643.326 77.9866 639.928 78.4825C634.354 79.3408 628.703 79.7603 622.747 80.3897V76.0031C622.747 70.1479 622.747 64.2736 622.747 58.4184C622.747 57.5793 623.244 56.2633 623.874 55.9963C630.097 53.4024 636.473 50.8086 643.326 48.0813Z" fill="white"/>
<path d="M109.232 140.525L104.994 127.498C115.15 126.049 123.74 121.433 132.235 116.055L138.325 132.915C138.458 133.258 138.611 133.601 138.706 133.964C139.069 135.356 140.062 137.778 139.623 138.007C137.98 139.347 135.998 140.206 133.896 140.487C125.687 140.677 117.536 140.525 109.232 140.525Z" fill="white"/>
<path d="M643.326 102.533C643.326 106.233 643.097 109.799 643.326 113.347C643.578 114.912 643.324 116.516 642.599 117.926C641.875 119.336 640.718 120.478 639.298 121.185C634.848 124.338 631.136 128.418 628.417 133.144C627.024 135.299 625.668 137.473 624.217 139.59C623.282 140.982 622.156 140.925 621.182 139.59L620.934 139.209C616.849 132.743 616.963 132.781 620.228 124.809C621.888 120.747 623.053 116.455 624.485 112.298C625.206 109.937 626.092 107.63 627.138 105.394C627.453 104.914 627.865 104.506 628.349 104.197C628.833 103.888 629.376 103.685 629.944 103.601C633.438 103.257 636.969 103.238 640.482 103.067C641.439 102.939 642.388 102.761 643.326 102.533Z" fill="white"/>
<path d="M616.2 130.836L606.655 113.919C604.86 110.829 603.085 107.758 601.329 104.707C600.796 104.038 600.483 103.221 600.432 102.368C600.381 101.515 600.594 100.667 601.042 99.9388C602.627 97.2687 603.524 94.2172 605.108 91.5089C606.619 89.3262 608.284 87.2547 610.091 85.3104C611.313 87.3511 612.363 88.9532 613.26 90.6316C616.441 96.6203 619.585 102.628 622.69 108.655C623.118 109.455 623.247 110.381 623.053 111.268C620.877 117.619 618.624 123.97 616.2 130.836Z" fill="white"/>
<path d="M476.71 174.836C469.724 174.836 463.348 174.836 456.933 174.836C456.418 174.836 455.521 173.749 455.521 173.177C455.46 170.626 455.607 168.075 455.96 165.548C456.578 160.186 456.255 154.758 455.005 149.508C455.731 149.508 456.494 149.336 457.258 149.336C462.298 149.336 467.337 149.527 472.358 149.336C474.935 149.203 475.87 150.423 475.966 152.483C476.29 159.654 476.462 167.092 476.71 174.836Z" fill="white"/>
<path d="M445.002 43.8663C439.867 43.8663 435.056 44.0952 430.284 43.7519C428.509 43.6184 426.829 42.1498 425.092 41.2915C422.133 39.842 420.395 40.3951 418.735 43.1988C418.563 43.5039 418.105 43.6374 417.799 43.8472C417.513 43.4086 416.978 42.9699 416.978 42.5312C416.856 38.7375 415.457 35.0957 413.008 32.194C411.568 30.5422 409.911 29.0923 408.083 27.8837C406.88 27.0445 405.811 26.0909 406.536 24.8131C407.262 23.5352 408.541 22.1429 409.724 22.0285C413.176 21.68 416.662 22.0303 419.976 23.0584C426.016 25.0699 431.862 27.6233 437.443 30.6873C439.351 31.6813 441.171 32.8362 442.883 34.1394C443.628 34.7607 444.129 35.6257 444.296 36.5807C444.678 38.9075 444.792 41.2534 445.002 43.8663Z" fill="white"/>
<path d="M566.795 174.74H544.994C543.715 171.422 545.434 168.58 546.77 165.853C549.309 160.684 552.115 155.649 554.883 150.595C555.208 150.004 555.952 149.26 556.525 149.26C563.054 149.26 569.582 149.26 576.588 149.26C574.45 152.044 572.579 154.619 570.556 157.099C567.791 160.199 566.139 164.132 565.86 168.275C565.934 169.779 566.144 171.272 566.49 172.738C566.604 173.329 566.681 173.978 566.795 174.74Z" fill="white"/>
<path d="M231.578 60.3448C237.172 56.7401 238.164 51.0375 238.661 45.0869C238.794 43.4848 237.992 41.406 238.661 40.3951C239.329 39.3843 241.562 39.6132 243.128 39.4034C245.023 39.1012 246.936 38.9165 248.855 38.8503C254.314 38.8503 259.793 38.8503 265.253 38.8503C267.162 38.8503 267.773 39.4797 267.563 41.2343C267.085 45.4874 266.723 49.7596 266.112 54.0128C265.787 56.2251 264.375 56.8545 262.179 56.1488C258.61 54.9621 254.752 54.9621 251.183 56.1488C249.141 56.8164 246.85 56.7401 244.731 57.1978C240.589 58.0942 236.465 59.1051 232.323 60.135L231.578 60.3448Z" fill="white"/>
<path d="M269.72 140.582C269.554 140.688 269.374 140.772 269.185 140.83C263.649 141.364 263.172 140.83 262.924 135.28C262.657 129.387 262.217 123.493 261.645 117.619C260.843 109.628 256.261 103.83 250.305 98.8708L245.247 94.6558C244.616 94.1694 244.089 93.5624 243.696 92.8702C243.303 92.178 243.053 91.4145 242.958 90.6243C242.864 89.8342 242.929 89.0332 243.148 88.2681C243.367 87.5031 243.736 86.7894 244.235 86.1687C246.426 83.0759 249.378 80.5995 252.806 78.9784C253.285 78.6927 253.851 78.5912 254.4 78.693C254.948 78.7949 255.44 79.093 255.784 79.5315C259.943 83.3797 262.482 88.6637 262.886 94.3125C263.687 101.941 263.859 109.57 264.355 117.199C264.5 120.971 264.837 124.734 265.367 128.471C265.64 130.557 266.538 132.512 267.944 134.078C270.102 136.119 269.968 138.236 269.72 140.582Z" fill="white"/>
<path d="M572.083 205.771H560.916V221.029C558.224 218.874 555.933 217.214 553.871 215.307C549.71 211.493 545.625 207.545 541.654 203.501C540.789 202.5 540.284 201.237 540.222 199.916C540.031 196.101 540.222 192.287 540.222 188.186C543.792 188.186 547.266 188.053 550.722 188.186C551.676 188.186 552.631 189.388 553.432 190.094L571.892 205.123C571.892 205.123 571.949 205.428 572.083 205.771Z" fill="white"/>
<path d="M432.708 174.836C420.605 174.836 408.713 174.836 396.801 174.836C396.301 174.73 395.835 174.5 395.448 174.166C395.061 173.833 394.765 173.407 394.586 172.929C394.385 169.708 394.385 166.479 394.586 163.259C394.956 162.157 395.622 161.178 396.511 160.428C397.399 159.678 398.477 159.186 399.626 159.006C403.452 158.793 407.29 158.971 411.08 159.54C415.614 160.538 420.039 161.982 424.29 163.85C428.012 165.357 432.937 170.888 432.708 174.836Z" fill="white"/>
<path d="M661.137 95.9909C661.137 87.4465 661.137 79.5315 661.232 71.5974C661.232 70.7582 662.435 69.5948 663.37 69.1562C665.961 67.8354 668.874 67.281 671.769 67.5581C674.664 67.8351 677.419 68.9321 679.711 70.7201C680.364 71.0773 680.905 71.609 681.272 72.2558C681.64 72.9025 681.82 73.6388 681.792 74.382C681.658 80.5614 681.792 86.7408 681.792 92.9012V95.3615C680.093 93.1682 678.757 91.3945 677.363 89.6398C676.294 88.3048 675.282 88.2475 673.698 89.2011C669.727 91.547 665.642 93.5878 661.137 95.9909Z" fill="white"/>
<path d="M91.1347 86.1687C89.3785 80.8856 87.9658 76.4036 86.4004 71.9598C85.8277 70.3577 86.2668 69.7093 87.794 69.0608C89.3973 68.2784 90.9301 67.3596 92.3755 66.3144C98.1383 62.2946 104.402 59.0439 111.007 56.6448C112.649 61.1458 114.31 65.5515 115.799 69.9954C115.81 70.3654 115.731 70.7326 115.568 71.065C115.405 71.3975 115.163 71.685 114.863 71.9026C109.06 75.5772 103.225 79.2136 97.358 82.8119C95.449 83.9181 93.3682 84.9671 91.1347 86.1687Z" fill="white"/>
<path d="M85.2359 68.2597C84.0905 64.9412 82.8115 61.3174 81.6088 57.6746C81.0743 56.0535 79.9862 54.1653 80.4253 52.8112C80.8643 51.457 82.9833 51.0756 84.3578 50.2364C90.0847 46.7462 95.8117 43.2941 101.424 39.7657C102.393 39.0481 103.306 38.2575 104.154 37.4008L110.205 54.2607L85.2359 68.2597Z" fill="white"/>
<path d="M358.888 230.432C369.235 237.183 380.651 239.758 391.627 243.782H378.933V262.32C375.148 261.912 371.581 260.347 368.72 257.838C365.932 255.302 362.993 252.994 360.091 250.515C359.506 250.082 359.099 249.452 358.946 248.741C358.793 242.809 358.888 236.878 358.888 230.432Z" fill="white"/>
<path d="M36.9196 63.3773L63.6453 69.3278C62.0991 74.0196 60.5337 78.616 59.1211 83.2506C58.6629 84.7382 58.3193 85.1578 56.5249 84.8145C49.4807 83.098 42.3411 81.6676 35.2588 80.0846C34.018 79.8176 32.8344 79.3599 31.4409 78.9021L36.9196 63.3773Z" fill="white"/>
<path d="M341.001 29.4286C348.771 32.5373 356.597 35.5126 363.508 40.3951C364.809 41.4292 365.92 42.6812 366.791 44.0952C367.746 45.4874 366.677 47.9096 364.615 48.9014C361.929 50.212 359.123 51.2595 356.235 52.0292C351.577 53.0973 346.804 53.6694 342.07 54.4514C341.787 54.4594 341.504 54.4273 341.23 54.356C338.691 47.4519 339.073 33.8915 341.001 29.4286Z" fill="white"/>
<path d="M284.037 149.279H301.39C301.661 151.118 301.833 152.971 301.905 154.829C301.905 160.913 301.6 166.978 301.504 173.062C301.504 174.283 301.142 174.969 299.805 174.855C294.689 174.855 289.592 174.855 284.037 174.855V149.279Z" fill="white"/>
<path d="M264.298 149.164C269.586 149.164 274.988 149.164 280.391 149.164C280.868 149.164 281.689 150.29 281.708 150.919C281.956 157.823 282.09 164.727 282.243 171.632C282.243 172.585 282.243 173.539 282.243 174.645H264.317L264.298 149.164Z" fill="white"/>
<path d="M254.562 12.8738C252.787 12.7212 251.031 12.4733 249.256 12.4161C243.853 12.2063 238.432 12.1681 233.029 11.8439C230.681 11.7104 228.371 10.9284 226.023 10.6423C224.267 10.4325 222.473 10.6423 220.716 10.5088C212.947 9.93666 205.139 9.498 197.389 8.6016C191.662 7.93407 185.935 6.69437 180.341 5.58818C177.535 5.07322 174.71 4.38662 171.808 3.81445V3.26136H174.404C191.795 3.26136 209.205 3.10878 226.596 3.26136C233.621 3.11445 240.594 4.50762 247.022 7.34283C249.714 8.62067 252.195 10.299 254.792 11.8057L254.562 12.8738Z" fill="white"/>
<path d="M378.875 217.768C376.298 216.089 374.065 214.792 372.003 213.247C368.032 210.234 364.138 207.049 361.923 202.433C359.727 198.598 359.046 194.081 360.015 189.769C360.396 188.377 360.95 188.11 362.172 188.129C366.906 188.129 371.717 188.244 376.355 188.129C378.264 188.129 378.646 188.949 378.913 190.628C379.715 195.892 380.822 201.098 384.526 205.885H378.799L378.875 217.768Z" fill="white"/>
<path d="M618.509 149.164C617.898 153.761 617.326 158.109 616.734 162.515C615.99 167.893 618.643 171.536 623.167 174.683C622.27 174.798 621.736 174.912 621.258 174.912C615.78 174.912 610.282 174.798 604.803 174.912C603.099 174.945 601.412 174.583 599.872 173.855C598.331 173.127 596.981 172.053 595.926 170.716C595.714 170.362 595.592 169.962 595.568 169.55C595.545 169.138 595.622 168.727 595.792 168.351C599.362 162.382 603.028 156.469 606.75 150.595C606.957 150.251 607.234 149.955 607.562 149.725C607.891 149.495 608.265 149.336 608.659 149.26C611.942 149.088 615.436 149.164 618.509 149.164Z" fill="white"/>
<path d="M695.976 140.525C689.294 140.525 683.109 140.658 676.886 140.41C675.55 140.41 674.271 138.904 673.068 138.045C669.422 135.528 665.776 133.01 662.187 130.416C661.91 130.21 661.678 129.949 661.505 129.651C661.331 129.353 661.219 129.023 661.175 128.681C661.175 123.417 661.175 118.153 661.175 112.908C661.175 111.401 662.034 110.829 663.313 110.81C668.926 110.696 673.813 113.69 674.939 119.641C675.336 122.478 676.339 125.196 677.881 127.612C679.422 130.027 681.466 132.083 683.873 133.64C687.156 135.68 690.669 137.34 694.086 139.19C694.563 139.476 695.059 139.895 695.976 140.525Z" fill="white"/>
<path d="M477.245 149.26H498.683C498.969 158.662 492.46 165.853 491.047 174.836C487.229 174.836 483.411 174.836 479.593 174.836C479.173 174.836 478.467 173.577 478.448 172.929C478.333 168.962 478.448 164.994 478.352 161.047C478.257 157.099 477.627 153.284 477.245 149.26Z" fill="white"/>
<path d="M607.972 243.858C604.021 244.05 600.062 244.006 596.117 243.725C594.099 243.131 592.227 242.125 590.619 240.769C583.613 236.268 576.626 231.709 569.792 226.693C570.27 226.693 570.766 226.598 571.243 226.598H601.443C603.143 226.636 604.765 227.319 605.978 228.51C607.191 229.701 607.904 231.309 607.972 233.006C607.972 236.497 607.972 240.101 607.972 243.858Z" fill="white"/>
<path d="M643.135 79.8557V100.835C642.143 100.835 641.055 100.835 639.966 100.835C638.261 100.912 636.556 101.02 634.85 101.159C633.519 101.384 632.173 101.512 630.822 101.541C627.463 101.312 626.642 102.113 624.962 105.699C624.652 106.588 624.128 107.387 623.435 108.026C623.167 103.772 622.805 99.5193 622.671 95.2661C622.538 91.013 622.671 86.6073 622.671 82.1825L643.135 79.8557Z" fill="white"/>
<path d="M553.604 149.164C550.168 157.919 543.277 164.88 542.647 174.836C538.046 174.836 533.35 174.836 528.654 174.836C528.215 174.836 527.432 173.768 527.451 173.234C527.866 167.691 529.391 162.288 531.937 157.346C532.802 155.293 533.79 153.293 534.896 151.358C535.431 150.461 536.557 149.451 537.454 149.336C542.742 149.069 548.087 149.164 553.604 149.164Z" fill="white"/>
<path d="M185.171 140.487C180.475 138.236 175.626 138.579 170.796 138.713C170.148 138.649 169.494 138.741 168.887 138.98C165.069 141.345 160.812 140.315 156.422 140.563C156.251 137.117 156.308 133.664 156.594 130.226C156.746 129.119 158.693 128.051 160.011 127.346C162.855 125.839 165.738 124.504 168.773 123.245C169.671 122.94 170.639 122.9 171.56 123.131C175.505 123.995 179.438 124.943 183.358 125.973C183.95 126.067 184.481 126.389 184.838 126.87C185.195 127.352 185.349 127.954 185.266 128.547C184.999 132.419 185.171 136.31 185.171 140.487Z" fill="white"/>
<path d="M492.517 174.836L501.489 149.26H516.035C515.157 152.96 514.241 156.545 513.496 160.15C512.657 164.251 511.817 168.351 511.282 172.509C511.053 174.206 510.709 174.912 508.877 174.874C503.723 174.779 498.473 174.836 492.517 174.836Z" fill="white"/>
<path d="M361.122 174.664C360.797 165.49 357.304 157.499 353.486 149.279H377.558C376.291 150.482 375.093 151.756 373.969 153.093C371.831 155.916 372.747 159.101 373.282 162.153C374.007 166.272 374.924 170.354 375.802 174.645L361.122 174.664Z" fill="white"/>
<path d="M242.307 149.26H261.778C261.896 149.44 261.98 149.641 262.026 149.851C262.198 157.48 262.332 165.109 262.561 172.738C262.561 174.435 262.122 175.046 260.385 174.95C257.884 174.817 255.345 174.95 252.749 174.95C252.331 174.915 251.926 174.785 251.565 174.57C251.205 174.355 250.898 174.061 250.668 173.711C249.408 170.525 248.396 167.264 247.27 164.041L242.307 149.26Z" fill="white"/>
<path d="M341.211 27.6549C342.689 22.8553 345.146 18.4136 348.427 14.6094C348.584 14.3615 348.791 14.1489 349.034 13.9851C349.278 13.8213 349.553 13.7098 349.842 13.6578C350.131 13.6058 350.428 13.6144 350.713 13.683C350.999 13.7516 351.267 13.8787 351.5 14.0563C358.058 17.7852 364.065 22.4068 369.349 27.7884C369.617 27.9781 369.837 28.2262 369.994 28.5139C370.151 28.8016 370.24 29.1212 370.255 29.4486C370.27 29.7759 370.21 30.1022 370.079 30.4028C369.949 30.7034 369.751 30.9703 369.502 31.1832C367.593 33.4147 367.135 35.8369 366.887 41.139C359.365 34.54 350.279 31.2595 341.211 27.6549Z" fill="white"/>
<path d="M598.961 100.721L584.434 74.382C589.302 72.4748 593.979 70.701 598.465 68.6603C600.05 67.9737 600.699 68.4314 601.443 69.7665C603.982 74.4011 606.597 78.9784 609.404 83.9181C604.357 88.3817 600.727 94.2223 598.961 100.721Z" fill="white"/>
<path d="M582.372 41.9591C584.74 41.1962 585.694 42.207 586.61 43.8663C590.753 51.3808 595.048 58.7999 599.42 66.5051C595.309 68.5319 591.061 70.2654 586.706 71.6928C581.513 73.0279 577.886 71.1397 578.02 64.2737C578.173 56.3777 580.807 49.2256 582.372 41.9591Z" fill="white"/>
<path d="M337.393 174.836C331.399 174.836 325.844 174.836 320.212 174.836C319.735 174.836 318.895 173.901 318.857 173.348C318.303 167.169 317.921 160.989 317.406 154.81C317.253 153.036 316.871 151.262 316.547 149.241C320.613 149.241 324.565 149.241 328.497 149.241C328.898 149.241 329.509 149.889 329.662 150.347C330.101 151.701 330.292 153.132 330.693 154.505C331.991 158.929 333.308 163.373 334.701 167.855C335.503 170.01 336.419 172.204 337.393 174.836Z" fill="white"/>
<path d="M704.967 122.311C712.393 120.06 714.378 118.916 719.132 112.069L738.642 118.458C737.592 120.27 736.504 122.463 735.091 124.428C733.678 126.392 731.693 128.49 730.013 130.531C728.333 132.572 726.195 133.83 723.026 132.324C716.667 129.637 710.613 126.281 704.967 122.311Z" fill="white"/>
<path d="M179.196 283.967V265.219L207.983 263.942C207.983 267.088 207.983 269.816 207.983 272.524C207.983 272.944 207.239 273.535 206.743 273.688C202.715 274.813 198.534 275.595 194.64 277.006C189.905 278.799 185.381 281.183 180.78 283.319L179.196 283.967Z" fill="white"/>
<path d="M233.965 174.779C228.925 174.779 224.42 174.779 219.953 174.779C219.529 174.662 219.143 174.439 218.829 174.132C218.515 173.826 218.284 173.444 218.158 173.024C217.618 167.714 216.125 162.546 213.748 157.766C212.156 154.987 210.316 152.357 208.251 149.908H227.169C228.005 158.524 230.303 166.934 233.965 174.779Z" fill="white"/>
<path d="M398.595 85.6728C402.776 77.4717 406.365 69.118 406.536 59.3721C411.175 60.7834 415.394 61.9659 419.537 63.3773C421.579 64.0829 420.701 66.0283 420.415 67.3062C418.658 74.6256 415.242 81.4443 410.431 87.2367C410.118 87.8194 409.592 88.2593 408.963 88.4652C408.334 88.6712 407.649 88.6274 407.052 88.3429C404.379 87.313 401.554 86.5883 398.595 85.6728Z" fill="white"/>
<path d="M362.248 75.2021C374.962 73.4856 378.99 64.0257 381.548 53.4215C385.557 54.3942 389.47 55.3288 393.345 56.3587C393.578 56.4971 393.772 56.6921 393.909 56.9255C394.045 57.159 394.121 57.4233 394.128 57.6937C393.4 62.3705 391.354 66.7435 388.229 70.3005C385.07 73.6196 381.696 76.7287 378.131 79.6078C377.758 79.862 377.336 80.0342 376.891 80.1131C376.447 80.192 375.991 80.1758 375.554 80.0655C371.048 78.7686 366.581 77.281 362.191 75.8696L362.248 75.2021Z" fill="white"/>
<path d="M184.961 37.3245V43.256C175.607 45.4493 166.559 49.5117 156.326 48.9777V31.5456L184.961 37.3245Z" fill="white"/>
<path d="M512.485 174.836C512.771 172.185 512.847 169.934 513.325 167.741C514.05 164.308 515.062 160.951 515.94 157.556C516.551 155.172 517.085 152.788 517.849 150.423C518.002 149.908 518.708 149.222 519.166 149.203C524.015 149.203 528.864 149.203 533.922 149.203C532.204 153.017 530.658 156.565 528.997 160.055C527.138 163.914 526.141 168.131 526.077 172.414C526.077 174.187 525.58 175.027 523.576 174.931C520.006 174.721 516.513 174.836 512.485 174.836Z" fill="white"/>
<path d="M432.212 149.069H453.039C453.705 151.278 454.159 153.545 454.395 155.84C454.395 161.561 454.146 167.283 454.032 173.005C454.032 174.473 453.345 174.912 451.894 174.912C450.063 174.798 448.227 174.798 446.396 174.912C444.716 175.026 444.391 174.302 444.372 172.776C444.067 167.121 442.072 161.687 438.645 157.175C436.832 154.333 434.465 151.835 432.212 149.069Z" fill="white"/>
<path d="M340.677 115.349C347.549 114.872 354.154 114.51 360.721 113.957C364.157 113.652 367.574 112.984 370.991 112.527C371.6 112.395 372.236 112.483 372.786 112.775C376.961 116.294 382.092 118.492 387.523 119.087C388.019 119.246 388.489 119.477 388.916 119.774C385.784 120.743 382.597 121.526 379.371 122.12C373.759 122.967 368.095 123.426 362.42 123.493C356.665 123.241 350.928 122.661 345.239 121.758C344.304 121.523 343.493 120.944 342.967 120.136C342.111 118.587 341.346 116.988 340.677 115.349Z" fill="white"/>
<path d="M379.505 80.9429C385.459 77.0352 390.268 71.6186 393.441 65.2463C394.445 63.1534 395.225 60.9607 395.77 58.7046C396.094 57.4076 396.648 57.0262 397.812 57.2741C399.721 57.6937 401.63 58.1705 403.539 58.6092C403.781 58.6269 404.016 58.6973 404.227 58.8153C404.439 58.9334 404.622 59.0962 404.764 59.2925C404.906 59.4888 405.003 59.7137 405.049 59.9515C405.094 60.1893 405.087 60.4342 405.028 60.669C404.045 68.8767 401.451 76.8099 397.392 84.0135C397.17 84.3071 396.881 84.5434 396.549 84.7027C396.217 84.8619 395.852 84.9395 395.483 84.929C390.348 83.8418 385.251 82.6021 380.212 81.4006C379.887 81.3624 379.753 81.1336 379.505 80.9429Z" fill="white"/>
<path d="M469.017 109.017C470.926 112.298 472.568 115.178 474.343 117.943C476.311 121.393 479.336 124.121 482.972 125.725C484.747 126.43 485.205 127.136 484.442 129.043C483.144 132.305 482.285 135.757 481.082 139.075C480.853 139.705 479.898 140.067 479.173 140.544C479.078 140.544 478.868 140.544 478.715 140.544C477.287 140.953 475.757 140.806 474.432 140.134C473.108 139.462 472.087 138.313 471.575 136.92C469.571 132.82 466.898 129.043 464.627 125.057C464.161 124.214 464.031 123.226 464.264 122.292C465.791 118 467.28 113.804 469.017 109.017Z" fill="white"/>
<path d="M249.58 174.759C244.903 174.759 240.799 174.759 236.694 174.759C236.45 174.722 236.217 174.631 236.012 174.493C235.807 174.354 235.636 174.172 235.511 173.958C231.838 166.335 229.618 158.095 228.963 149.66C232.934 149.66 236.713 149.66 240.417 149.66C240.741 149.66 241.276 150.442 241.352 150.919C242.425 156.43 244.229 161.773 246.716 166.806C247.811 169.405 248.767 172.06 249.58 174.759Z" fill="white"/>
<path d="M41.9976 49.1875L46.121 37.7441C54.7305 39.9946 63.1109 43.0462 72.5794 41.3678C71.854 43.6756 71.2049 45.7735 70.6323 47.8524C70.3841 48.6344 70.0977 49.3973 69.8305 50.1792C68.4751 54.337 68.1124 54.6994 63.8554 53.9937C58.4721 53.021 53.146 51.7813 47.8009 50.637C45.8155 50.1792 44.0211 49.588 41.9976 49.1875Z" fill="white"/>
<path d="M303.528 174.664V149.164C306.907 149.164 310.324 149.164 313.722 149.164C314.237 149.164 315.039 150.137 315.134 150.747C315.554 153.265 315.841 155.821 316.051 158.376C316.432 163.125 316.719 167.913 317.043 172.604C317.043 173.196 317.043 173.806 317.043 174.512L303.528 174.664Z" fill="white"/>
<path d="M339.569 112.527L337.66 103.62C347.511 104.974 356.254 100.149 365.57 99.6146L370.514 110.944C360.434 112.145 350.279 113.919 339.569 112.527Z" fill="white"/>
<path d="M184.98 45.2014V57.8845L156.384 61.0314V50.8658C166.329 51.0566 175.397 47.204 184.98 45.2014Z" fill="white"/>
<path d="M37.5306 61.737L41.3486 51.0756L67.7497 56.5112C66.7762 59.5628 65.7453 63.053 64.5045 66.467C64.3518 66.9056 63.1109 67.3061 62.5001 67.1917C57.2122 66.1237 51.9625 64.903 46.7128 63.7587L37.5306 61.737Z" fill="white"/>
<path d="M418.296 262.092V249.847L440.669 252.784C440.211 257.362 439.81 261.767 439.256 266.135C439.084 266.442 438.835 266.7 438.534 266.883C438.233 267.067 437.89 267.17 437.538 267.184C431.315 265.62 425.13 263.922 418.926 262.244L418.296 262.092Z" fill="white"/>
<path d="M488.699 54.9664C491.648 60.5321 496.448 64.8959 502.272 67.3062C503.398 67.8402 503.761 68.4124 503.283 69.7283C502.195 72.7418 501.374 75.8696 500.305 78.8831C500.115 79.4171 499.046 80.1418 498.606 80.0083C493.242 78.3872 487.553 77.3001 483.85 72.4748C483.544 72.0818 483.321 71.6303 483.197 71.1481C483.072 70.6658 483.047 70.1632 483.125 69.6711C484.671 64.903 486.408 60.135 488.107 55.4813C488.164 55.3097 488.413 55.1952 488.699 54.9664Z" fill="white"/>
<path d="M540.241 231.576C543.296 233.731 545.968 235.6 548.641 237.546C552.153 240.12 555.628 242.79 559.14 245.384C559.715 245.737 560.182 246.239 560.491 246.838C560.801 247.436 560.941 248.107 560.896 248.779C560.763 253.261 560.896 257.743 560.896 262.397C558.712 259.888 556.399 257.495 553.967 255.226C549.958 251.831 545.663 248.779 541.539 245.499C540.884 244.979 540.454 244.228 540.337 243.401C540.108 239.663 540.241 235.924 540.241 231.576Z" fill="white"/>
<path d="M533.216 86.1687C525.58 84.8336 518.593 83.613 511.645 82.3542C511.053 82.2398 510.156 81.9728 510.003 81.5532C508.495 77.4335 507.101 73.2567 505.574 68.7556C508.934 69.6902 511.817 70.6629 514.775 71.2541C518.708 71.9598 522.698 72.265 526.649 72.7799C527.337 72.7799 528.425 73.0088 528.558 73.4093C530.162 77.4526 531.574 81.5532 533.216 86.1687Z" fill="white"/>
<path d="M499.37 82.0109C498.072 86.1496 496.831 89.9259 495.724 93.7213C495.266 95.2852 494.292 95.6285 493.032 94.9991C488.183 92.5007 483.487 89.9068 478.6 87.3702C477.436 86.7408 477.169 85.9016 477.703 84.5284C479.135 80.9047 480.337 77.2047 481.769 73.1804C486.274 78.9402 492.994 80.1037 499.37 82.0109Z" fill="white"/>
<path d="M563.569 131.599V85.5011C573.629 95.762 575.557 115.082 563.569 131.599Z" fill="white"/>
<path d="M310.324 267.012H297.285L292.551 248.951C296.999 248.951 301.619 248.951 306.219 248.951C306.424 248.997 306.614 249.093 306.774 249.229C306.933 249.365 307.058 249.538 307.136 249.733C308.816 255.187 310.667 260.604 310.572 266.421C310.572 266.669 310.457 266.802 310.324 267.012Z" fill="white"/>
<path d="M184.999 27.2162V35.5698C181.868 34.9404 178.89 34.292 175.874 33.6626C172.419 33.0332 168.907 32.6518 165.47 31.8889C162.642 31.199 159.857 30.3457 157.128 29.3332C156.873 29.1659 156.662 28.94 156.513 28.6746C156.364 28.4091 156.28 28.1118 156.269 27.8074C156.269 24.9275 156.269 22.0857 156.269 18.7671C165.413 23.4589 175.149 25.2899 184.999 27.2162Z" fill="white"/>
<path d="M416.158 214.964L434.942 222.593C434.159 228.314 429.826 231.366 424.672 230.222C419.517 229.077 414.554 228.086 409.514 226.979C408.426 226.751 407.395 226.312 406.155 225.911C414.802 223.775 415.528 221.506 416.158 214.964Z" fill="white"/>
<path d="M371.774 27.9981C365.753 21.409 358.652 15.8943 350.775 11.6913C354.039 9.6315 356.826 7.87685 359.709 6.16034C360.091 5.95055 361.179 6.40828 361.618 6.86602C366.982 13.3872 373.379 18.986 380.555 23.4398C380.803 23.6221 381.039 23.8196 381.261 24.0311L371.774 27.9981Z" fill="white"/>
<path d="M612.458 188.263V203.196L584.797 188.816L584.988 188.301L612.458 188.263Z" fill="white"/>
<path d="M625.439 140.525C630.383 132.896 635.328 125.667 643.25 120.423C643.25 125.648 643.25 130.34 643.25 135.032C643.25 136.653 638.611 140.525 636.969 140.525H625.439Z" fill="white"/>
<path d="M429.711 195.186C428.786 197.301 427.073 198.973 424.935 199.849C422.797 200.724 420.403 200.735 418.257 199.878C413.078 197.34 408.299 194.056 404.074 190.132C403.559 189.547 403.111 188.908 402.737 188.225C412.645 187.691 421.885 188.816 429.711 195.186Z" fill="white"/>
<path d="M622.747 54.5849V41.7683H643.326C643.326 43.0652 643.326 44.4194 643.326 45.7354C643.277 45.9656 643.176 46.1815 643.03 46.3666C642.884 46.5517 642.698 46.7011 642.486 46.8034C638.172 48.4818 633.819 50.0648 629.505 51.7431C627.195 52.5823 625.076 53.5932 622.747 54.5849Z" fill="white"/>
<path d="M739.023 64.7123C734.919 62.3092 730.796 59.9442 726.71 57.522C723.849 56.097 721.565 53.7338 720.239 50.8277C719.342 48.539 718.731 46.155 717.986 43.79C725.622 44.6101 736.427 54.4705 739.443 63.9876L739.023 64.7123Z" fill="white"/>
<path d="M240.989 140.41C239.176 141.04 237.916 140.41 237.534 138.236C236.847 134.193 236.007 130.168 235.53 126.087C235.11 122.597 235.11 119.049 234.9 115.254C238.718 116.589 242.192 118.096 243.357 121.815C243.965 124.237 244.036 126.762 243.567 129.215C243.013 132.934 241.906 136.577 240.989 140.41Z" fill="white"/>
<path d="M234.404 32.2703H266.475L267.238 37.0766C261.511 37.0766 256.204 36.924 250.821 37.0766C247.366 37.292 243.925 37.6931 240.512 38.2781C238.794 38.5261 237.515 38.5642 236.828 36.5044C236.161 35.0169 235.349 33.5987 234.404 32.2703Z" fill="white"/>
<path d="M457.143 204.875L461.381 226.693C461.954 229.631 462.546 232.568 463.08 235.524C463.825 239.548 461.496 241.875 457.945 240.54C457.566 240.362 457.235 240.096 456.979 239.764C456.724 239.432 456.551 239.044 456.475 238.633C456.475 227.666 456.475 216.699 456.475 205.714C456.514 205.431 456.591 205.155 456.704 204.894L457.143 204.875Z" fill="white"/>
<path d="M471.804 140.429H457.811L463.023 125.744L471.804 140.429Z" fill="white"/>
<path d="M730.662 149.26H748.969V158.3C742.02 157.06 737.095 151.701 730.662 149.26Z" fill="white"/>
<path d="M548.316 128.299L552.611 140.429H540.814L548.316 128.299Z" fill="white"/>
<path d="M362.592 98.0888C357.132 99.3858 351.596 100.854 345.964 101.903C343.629 102.248 341.256 102.248 338.92 101.903C336.496 101.655 337.355 99.6146 337.24 98.0888H362.592Z" fill="white"/>
<path d="M260.461 267.756C260.461 272.791 263.496 278.112 258.896 282.69C257.312 284.066 255.641 285.34 253.894 286.504L253.283 286.027L259.85 267.603L260.461 267.756Z" fill="white"/>
<path d="M661.252 140.448V131.599L672.705 139.914L672.4 140.429L661.252 140.448Z" fill="white"/>
<path d="M94.1508 9.53616L82.6969 3.16601C85.5986 3.16601 88.1566 3.16601 90.7147 3.16601C91.044 3.21528 91.3578 3.33877 91.6323 3.52711C91.9068 3.71546 92.1348 3.96373 92.2991 4.25313C93.0245 5.91242 93.5399 7.62893 94.1508 9.53616Z" fill="white"/>
<path d="M425.588 43.8663H420.835C421.885 41.7492 423.66 41.7683 425.588 43.8663Z" fill="white"/>
</g>
<defs>
<clipPath id="clip0">
<rect width="750" height="287" fill="white"/>
</clipPath>
</defs>
</svg>
