<svg width="89" height="30" viewBox="0 0 89 30" fill="none" xmlns="http://www.w3.org/2000/svg">
<path d="M42.5398 19.1556C42.1083 19.7185 41.4107 20 40.447 20C39.4832 20 38.7856 19.7185 38.3541 19.1556C37.937 18.5778 37.7284 17.7111 37.7284 16.5556V16.2C37.7284 15.0444 37.937 14.1852 38.3541 13.6222C38.7856 13.0444 39.4832 12.7556 40.447 12.7556C41.4107 12.7556 42.1083 13.0444 42.5398 13.6222C42.9713 14.1852 43.1871 15.0444 43.1871 16.2V16.5556C43.1871 17.7111 42.9713 18.5778 42.5398 19.1556Z" fill="#1800BD"/>
<path fill-rule="evenodd" clip-rule="evenodd" d="M89 0H14.0917L0 30H74.9083L89 0ZM21.7484 6.15555H18.7925V22.2222H21.7484V6.15555ZM26.8687 6.15555H23.9129V9.04444H26.8687V6.15555ZM26.8687 10.5333H23.9129V22.2222H26.8687V10.5333ZM27.7387 13.0222H29.3569V22.2222H32.3127V13.0222H34.3193V10.5333H32.3127V9.42222C32.3127 8.78518 32.622 8.46667 33.2405 8.46667H34.3193V6.33333C34.0748 6.24444 33.7727 6.16296 33.4131 6.08889C33.0535 6.01481 32.7227 5.97778 32.4206 5.97778C31.3274 5.97778 30.5435 6.28889 30.0689 6.91111C29.5942 7.51852 29.3569 8.28148 29.3569 9.2V10.5333H27.7387V13.0222ZM36.1102 21C37.0596 21.9926 38.5051 22.4889 40.447 22.4889C42.3888 22.4889 43.8344 21.9926 44.7837 21C45.7474 20.0074 46.2293 18.4667 46.2293 16.3778C46.2293 14.2889 45.7474 12.7481 44.7837 11.7556C43.8344 10.763 42.3888 10.2667 40.447 10.2667C38.5051 10.2667 37.0596 10.763 36.1102 11.7556C35.1609 12.7481 34.6862 14.2889 34.6862 16.3778C34.6862 18.4667 35.1609 20.0074 36.1102 21ZM50.2494 10.5333H47.7251V22.2222H50.681V16.5778C50.681 15.4815 50.8967 14.6667 51.3282 14.1333C51.7597 13.5852 52.4574 13.3111 53.4211 13.3111H54.2409V10.4667C53.9101 10.3333 53.5361 10.2667 53.119 10.2667C52.4861 10.2667 51.9755 10.4593 51.5871 10.8444C51.1988 11.2296 50.8823 11.7556 50.6378 12.4222H50.4868L50.2494 10.5333ZM57.7723 10.5333H55.2479V22.2222H58.2038V15.4667C58.2038 14.7556 58.3908 14.163 58.7648 13.6889C59.1531 13.2 59.635 12.9556 60.2104 12.9556C61.3179 12.9556 61.8717 13.6444 61.8717 15.0222V22.2222H64.8276V15.4667C64.8276 14.7556 65.0146 14.163 65.3885 13.6889C65.7625 13.2 66.2372 12.9556 66.8125 12.9556C67.9201 12.9556 68.4739 13.6444 68.4739 15.0222V22.2222H71.4297V14.3778C71.4297 12.9407 71.1061 11.8963 70.4588 11.2444C69.826 10.5926 68.9701 10.2667 67.8913 10.2667C66.5105 10.2667 65.3885 10.8667 64.5255 12.0667H64.3529C63.8063 10.8667 62.8138 10.2667 61.3754 10.2667C60.0521 10.2667 58.9733 10.8667 58.1391 12.0667H57.9881L57.7723 10.5333Z" fill="#1800BD"/>
</svg>
