<svg width="63" height="37" viewBox="0 0 63 37" fill="none" xmlns="http://www.w3.org/2000/svg">
<path d="M27.6656 37L24.8091 29.3357H10.5267L7.67018 37H0L14.1766 0H21.1591L35.3357 37H27.6656ZM22.4816 22.8343L18.8316 13.2143C18.2674 11.8048 17.8795 10.6948 17.6679 9.88429C17.4563 10.6948 17.0684 11.8048 16.5041 13.2143L12.8542 22.8343H22.4816Z" fill="#303030"/>
<path d="M32.8314 37V0H50.0232C54.3608 0 57.4994 1.09238 59.439 3.27715C61.4138 5.42667 62.4013 8.19286 62.4013 11.5757C62.4013 13.831 61.7665 15.9805 60.4969 18.0243C59.2626 20.0329 57.4994 21.4424 55.2071 22.2529L62.4013 37H54.3608L47.4312 23.2043H39.9726V37H32.8314ZM39.9726 16.4386H50.129C51.8217 16.4386 53.056 15.9805 53.8318 15.0643C54.6076 14.1481 54.9956 12.9852 54.9956 11.5757C54.9956 10.2014 54.6076 9.05619 53.8318 8.14C53.0912 7.22381 51.8569 6.76572 50.129 6.76572H39.9726V16.4386Z" fill="#303030"/>
</svg>