<svg width="58" height="37" viewBox="0 0 58 37" fill="none" xmlns="http://www.w3.org/2000/svg">
<path fill-rule="evenodd" clip-rule="evenodd" d="M26.2173 16.1287L20.6797 0.842041H12.9548L0 36.2075H7.58099L10.2679 28.332H23.0788L25.6698 36.2075H33.4907L32.5439 33.5941C33.5381 34.3781 34.6424 35.0428 35.8568 35.5883C37.952 36.5294 40.311 37 42.934 37C45.0452 37 46.9804 36.6698 48.7397 36.0094C50.499 35.3489 52.0344 34.3914 53.3458 33.1365C54.6573 31.8817 55.7129 30.3628 56.5126 28.5797C57.3123 26.7965 57.8081 24.7988 58 22.5863H50.7069C50.419 24.9639 49.6273 26.8791 48.3318 28.332C47.0364 29.7849 45.2371 30.5114 42.934 30.5114C41.2386 30.5114 39.7993 30.1729 38.6157 29.496C37.4322 28.8191 36.4726 27.9193 35.7369 26.7965C35.0012 25.6738 34.4654 24.4108 34.1295 23.0074C33.7936 21.604 33.6257 20.1593 33.6257 18.6734C33.6257 17.1214 33.7936 15.6189 34.1295 14.166C34.4654 12.7131 35.0012 11.417 35.7369 10.2778C36.4726 9.13855 37.4322 8.23047 38.6157 7.55356C39.7993 6.87662 41.2386 6.53815 42.934 6.53815C43.8616 6.53815 44.7493 6.69501 45.5969 7.0087C46.4446 7.32239 47.2043 7.75992 47.876 8.32129C48.5478 8.88266 49.1075 9.53479 49.5554 10.2778C50.0032 11.0208 50.2911 11.838 50.419 12.7296H57.7121C57.4882 10.6823 56.9445 8.86615 56.0807 7.28113C55.2171 5.69611 54.1216 4.36703 52.7941 3.29385C51.4666 2.22064 49.9632 1.40338 48.2839 0.842041C46.6046 0.28067 44.8213 0 42.934 0C40.311 0 37.952 0.47879 35.8568 1.4364C33.7617 2.39401 31.9944 3.71484 30.5549 5.39893C29.1155 7.08301 28.012 9.056 27.2443 11.3179C26.729 12.836 26.3867 14.4396 26.2173 16.1287ZM16.6733 9.65863L21.1116 22.5368H12.2351L16.6733 9.65863Z" fill="#303030"/>
</svg>
