<svg width="61" height="74" viewBox="0 0 61 74" fill="none" xmlns="http://www.w3.org/2000/svg">
<path d="M40 30C40 29.4696 39.7893 28.9609 39.4142 28.5858C39.0391 28.2107 38.5304 28 38 28H16C15.4696 28 14.9609 28.2107 14.5858 28.5858C14.2107 28.9609 14 29.4696 14 30C14 30.5304 14.2107 31.0391 14.5858 31.4142C14.9609 31.7893 15.4696 32 16 32H38C38.5304 32 39.0391 31.7893 39.4142 31.4142C39.7893 31.0391 40 30.5304 40 30Z" fill="white"/>
<path d="M30 38H16C15.4696 38 14.9609 38.2107 14.5858 38.5858C14.2107 38.9609 14 39.4696 14 40C14 40.5304 14.2107 41.0391 14.5858 41.4142C14.9609 41.7893 15.4696 42 16 42H30C30.5304 42 31.0391 41.7893 31.4142 41.4142C31.7893 41.0391 32 40.5304 32 40C32 39.4696 31.7893 38.9609 31.4142 38.5858C31.0391 38.2107 30.5304 38 30 38Z" fill="white"/>
<path d="M16 52H27C27.5304 52 28.0391 51.7893 28.4142 51.4142C28.7893 51.0391 29 50.5304 29 50C29 49.4696 28.7893 48.9609 28.4142 48.5858C28.0391 48.2107 27.5304 48 27 48H16C15.4696 48 14.9609 48.2107 14.5858 48.5858C14.2107 48.9609 14 49.4696 14 50C14 50.5304 14.2107 51.0391 14.5858 51.4142C14.9609 51.7893 15.4696 52 16 52Z" fill="white"/>
<path d="M24 20C24 19.4696 23.7893 18.9609 23.4142 18.5858C23.0391 18.2107 22.5304 18 22 18H10C9.46957 18 8.96086 18.2107 8.58579 18.5858C8.21071 18.9609 8 19.4696 8 20C8 20.5304 8.21071 21.0391 8.58579 21.4142C8.96086 21.7893 9.46957 22 10 22H22C22.5304 22 23.0391 21.7893 23.4142 21.4142C23.7893 21.0391 24 20.5304 24 20Z" fill="white"/>
<path d="M16 62H31C31.5304 62 32.0391 61.7893 32.4142 61.4142C32.7893 61.0391 33 60.5304 33 60C33 59.4696 32.7893 58.9609 32.4142 58.5858C32.0391 58.2107 31.5304 58 31 58H16C15.4696 58 14.9609 58.2107 14.5858 58.5858C14.2107 58.9609 14 59.4696 14 60C14 60.5304 14.2107 61.0391 14.5858 61.4142C14.9609 61.7893 15.4696 62 16 62Z" fill="white"/>
<path d="M10 32C11.1046 32 12 31.1046 12 30C12 28.8954 11.1046 28 10 28C8.89543 28 8 28.8954 8 30C8 31.1046 8.89543 32 10 32Z" fill="white"/>
<path d="M10 42C11.1046 42 12 41.1046 12 40C12 38.8954 11.1046 38 10 38C8.89543 38 8 38.8954 8 40C8 41.1046 8.89543 42 10 42Z" fill="white"/>
<path d="M10 52C11.1046 52 12 51.1046 12 50C12 48.8954 11.1046 48 10 48C8.89543 48 8 48.8954 8 50C8 51.1046 8.89543 52 10 52Z" fill="white"/>
<path d="M10 62C11.1046 62 12 61.1046 12 60C12 58.8954 11.1046 58 10 58C8.89543 58 8 58.8954 8 60C8 61.1046 8.89543 62 10 62Z" fill="white"/>
<path d="M46 63C45.4696 63 44.9609 63.2107 44.5858 63.5858C44.2107 63.9609 44 64.4696 44 65V68C44 68.5304 43.7893 69.0391 43.4142 69.4142C43.0391 69.7893 42.5304 70 42 70H6C5.46957 70 4.96086 69.7893 4.58579 69.4142C4.21071 69.0391 4 68.5304 4 68V10C4 9.46957 4.21071 8.96086 4.58579 8.58579C4.96086 8.21071 5.46957 8 6 8H10.35C10.7632 9.1687 11.5282 10.1807 12.54 10.897C13.5517 11.6133 14.7604 11.9986 16 12H32C33.2396 11.9986 34.4483 11.6133 35.46 10.897C36.4718 10.1807 37.2368 9.1687 37.65 8H42C42.5304 8 43.0391 8.21071 43.4142 8.58579C43.7893 8.96086 44 9.46957 44 10V32C44 32.5304 44.2107 33.0391 44.5858 33.4142C44.9609 33.7893 45.4696 34 46 34C46.5304 34 47.0391 33.7893 47.4142 33.4142C47.7893 33.0391 48 32.5304 48 32V10C48 8.4087 47.3679 6.88258 46.2426 5.75736C45.1174 4.63214 43.5913 4 42 4H37.65C37.2368 2.8313 36.4718 1.81926 35.46 1.103C34.4483 0.386737 33.2396 0.00141637 32 0H16C14.7604 0.00141637 13.5517 0.386737 12.54 1.103C11.5282 1.81926 10.7632 2.8313 10.35 4H6C4.4087 4 2.88258 4.63214 1.75736 5.75736C0.63214 6.88258 0 8.4087 0 10V68C0 69.5913 0.63214 71.1174 1.75736 72.2426C2.88258 73.3679 4.4087 74 6 74H42C43.5913 74 45.1174 73.3679 46.2426 72.2426C47.3679 71.1174 48 69.5913 48 68V65C48 64.4696 47.7893 63.9609 47.4142 63.5858C47.0391 63.2107 46.5304 63 46 63ZM16 4H32C32.5304 4 33.0391 4.21071 33.4142 4.58579C33.7893 4.96086 34 5.46957 34 6C34 6.53043 33.7893 7.03914 33.4142 7.41421C33.0391 7.78929 32.5304 8 32 8H16C15.4696 8 14.9609 7.78929 14.5858 7.41421C14.2107 7.03914 14 6.53043 14 6C14 5.46957 14.2107 4.96086 14.5858 4.58579C14.9609 4.21071 15.4696 4 16 4Z" fill="white"/>
<path d="M57.83 43.7L52.63 41.7L48.54 37.1C48.2228 36.7387 47.8321 36.4492 47.3941 36.2509C46.9561 36.0526 46.4808 35.95 46 35.95C45.5192 35.95 45.0439 36.0526 44.6059 36.2509C44.1679 36.4492 43.7772 36.7387 43.46 37.1L39.37 41.7L34.17 43.7C33.7009 43.8726 33.2771 44.1495 32.9306 44.5098C32.5841 44.8701 32.3241 45.3045 32.17 45.78C32.0122 46.2388 31.9608 46.7276 32.0197 47.2092C32.0786 47.6908 32.2463 48.1527 32.51 48.56L36 54.18V58.7C35.9993 59.2192 36.1235 59.7309 36.3619 60.1921C36.6003 60.6532 36.946 61.0504 37.37 61.35C37.9519 61.7713 38.6516 61.9988 39.37 62C39.7097 62.0004 40.0474 61.9464 40.37 61.84L46 60.12L51.55 61.84C52.054 61.9951 52.587 62.0316 53.1074 61.9466C53.6279 61.8616 54.1216 61.6574 54.55 61.35C54.9888 61.0593 55.3501 60.6661 55.6027 60.2043C55.8554 59.7426 55.9917 59.2263 56 58.7V54.18L59.48 48.59C59.7466 48.1784 59.9165 47.7118 59.9771 47.2251C60.0377 46.7385 59.9875 46.2444 59.83 45.78C59.6759 45.3045 59.4159 44.8701 59.0694 44.5098C58.7229 44.1495 58.2991 43.8726 57.83 43.7ZM52.47 52.27C52.1689 52.7425 52.0061 53.2898 52 53.85V57.78L47.18 56.3C46.4112 56.0627 45.5888 56.0627 44.82 56.3L40 57.78V53.86C39.9981 53.3069 39.8385 52.7657 39.54 52.3L36.34 47.16L41 45.4C41.4593 45.2256 41.8706 44.9446 42.2 44.58L46 40.3L49.79 44.57C50.1156 44.9412 50.5278 45.2263 50.99 45.4L55.66 47.16L52.47 52.27Z" fill="white"/>
</svg>
