<svg width="1213" height="288" viewBox="0 0 1213 288" fill="none" xmlns="http://www.w3.org/2000/svg">
<path id="Subtract" fill-rule="evenodd" clip-rule="evenodd" d="M1213 0H0V288H1213V0ZM691.394 76C704.327 76 715.527 78.7333 724.994 84.2C734.594 89.6667 741.927 97.5333 746.994 107.8C752.194 117.933 754.794 130 754.794 144C754.794 158 752.194 170.133 746.994 180.4C741.927 190.533 734.594 198.333 724.994 203.8C715.527 209.267 704.327 212 691.394 212C678.46 212 667.194 209.267 657.594 203.8C647.994 198.333 640.594 190.533 635.394 180.4C630.327 170.133 627.794 158 627.794 144C627.794 130 630.327 117.933 635.394 107.8C640.594 97.5333 647.994 89.6667 657.594 84.2C667.194 78.7333 678.46 76 691.394 76ZM691.394 98.6C680.194 98.6 671.527 102.533 665.394 110.4C659.394 118.133 656.394 129.333 656.394 144C656.394 158.667 659.394 169.933 665.394 177.8C671.527 185.533 680.194 189.4 691.394 189.4C702.46 189.4 710.994 185.533 716.994 177.8C723.127 169.933 726.194 158.667 726.194 144C726.194 129.333 723.127 118.133 716.994 110.4C710.994 102.533 702.46 98.6 691.394 98.6ZM141 100.2H185.2V78H69V100.2H113.4V210H141V100.2ZM315.153 210V78H287.553V132.2H229.353V78H201.753V210H229.353V154.4H287.553V210H315.153ZM445.405 187.8V210H343.605V78H442.605V100.2H371.205V133H427.405V154.2H371.205V187.8H445.405ZM546.9 133.6V100.2H618.1V78H519.3V210H546.9V156H603.1V133.6H546.9ZM803.836 159.4H828.636L859.636 210H890.636L855.836 156.4C864.503 153.6 871.169 149 875.836 142.6C880.503 136.2 882.836 128.267 882.836 118.8C882.836 105.867 878.569 95.8667 870.036 88.8C861.636 81.6 849.903 78 834.836 78H776.636V210H803.836V159.4ZM831.236 138.4H803.836V100H831.236C839.236 100 845.103 101.6 848.836 104.8C852.703 107.867 854.636 112.667 854.636 119.2C854.636 125.733 852.703 130.6 848.836 133.8C845.103 136.867 839.236 138.4 831.236 138.4ZM1019.61 140.2V210H999.406L998.806 194.2C990.806 206.067 977.806 212 959.806 212C947.673 212 937.006 209.333 927.806 204C918.606 198.667 911.406 190.933 906.206 180.8C901.14 170.533 898.606 158.333 898.606 144.2C898.606 130.2 901.206 118.067 906.406 107.8C911.74 97.5333 919.206 89.6667 928.806 84.2C938.54 78.7333 949.873 76 962.806 76C977.073 76 988.673 78.6 997.606 83.8C1006.67 89 1013.81 97.2 1019.01 108.4L993.606 119.4C991.606 112.6 987.94 107.467 982.606 104C977.406 100.4 971.073 98.6 963.606 98.6C952.14 98.6 943.206 102.533 936.806 110.4C930.406 118.267 927.206 129.467 927.206 144C927.206 159.067 930.34 170.467 936.606 178.2C942.873 185.933 952.073 189.8 964.206 189.8C973.54 189.8 981.14 187.6 987.006 183.2C992.873 178.667 995.806 172.133 995.806 163.6V160.6H957.206V140.2H1019.61ZM1145.54 210V187.8H1071.34V154.2H1127.54V133H1071.34V100.2H1142.74V78H1043.74V210H1145.54Z" fill="white"/>
</svg>
