<svg width="220" height="204" viewBox="0 0 220 204" fill="none" xmlns="http://www.w3.org/2000/svg">
<path d="M173.403 145.2C135.303 139.2 134.103 119.1 134.403 115.5C141.903 108.3 147.603 98.4 150.903 88.2H152.403C157.803 88.2 162.003 84 162.003 78.6V74.4H163.803C165.603 74.4 166.803 73.2 166.803 71.4V58.2C166.803 56.4 165.603 55.2 163.803 55.2H162.003V48C162.003 42.9 158.103 38.7 153.003 38.4C150.303 16.8 131.703 0 109.503 0C87.3029 0 68.7029 16.5 66.0029 38.4C60.9029 38.7 57.0029 42.9 57.0029 48V55.2H55.2029C53.4029 55.2 52.2029 56.4 52.2029 58.2V71.4C52.2029 73.2 53.4029 74.4 55.2029 74.4H57.0029V78.6C57.0029 84 61.2029 88.2 66.6029 88.2H68.1029C71.4029 98.4 77.1029 108.3 84.6029 115.5C84.6029 119.1 83.7029 139.2 45.6029 145.2C-1.19714 152.7 0.00285544 199.8 0.00285544 200.1C0.00285544 201.6 1.50286 203.1 3.00286 203.1C4.80286 203.1 6.00286 201.6 6.00286 200.1C6.00286 198.3 5.10285 157.8 46.5029 151.2C81.0029 145.8 88.8028 129 90.3028 120C96.0029 123.9 102.303 126.3 109.503 126.3C116.403 126.3 123.003 123.9 128.703 120C130.203 129 138.003 145.5 172.503 151.2C213.903 157.8 213.303 198.3 213.003 200.1C213.003 201.9 214.203 203.1 216.003 203.1C217.503 203.1 219.003 201.9 219.003 200.1C219.003 199.8 220.203 153 173.403 145.2ZM109.503 6.3C128.403 6.3 144.303 20.1 147.003 38.7H72.0029C74.7029 20.1 90.6029 6.3 109.503 6.3ZM63.0029 48C63.0029 45.9 64.8029 44.4 66.6029 44.4H68.4029H150.003H151.803C153.903 44.4 155.403 45.9 155.403 48V78.6C155.403 80.7 153.903 82.2 151.803 82.2H148.503H125.103L118.803 71.7C117.003 68.4 113.703 66.6 110.103 66.3C109.803 66.3 109.803 66.3 109.503 66.3C109.503 66.3 109.503 66.3 109.203 66.3C106.803 66.3 104.703 67.2 102.903 68.4C101.703 69.3 100.803 70.2 100.203 71.7L93.9029 82.5H70.5029H66.6029C64.5029 82.5 63.0029 81 63.0029 78.9V48ZM74.7029 88.5H96.0029C97.2029 88.5 98.1029 87.9 98.7029 86.7V86.4L105.303 74.7C106.203 73.2 107.703 72.3 109.503 72.3C111.303 72.3 112.803 73.2 113.703 74.7L120.303 86.1C120.303 86.1 120.603 86.4 120.603 86.7C120.603 87 120.903 87 120.903 87.3C121.203 87.6 121.203 87.6 121.503 87.9C121.803 87.9 121.803 88.2 122.103 88.2C122.403 88.2 122.403 88.2 122.703 88.2H123.003H144.303C138.603 104.7 125.103 120.6 109.503 120.6C93.9029 120.6 80.4029 104.7 74.7029 88.5Z" fill="white"/>
</svg>
