<svg width="37" height="37" viewBox="0 0 37 37" fill="none" xmlns="http://www.w3.org/2000/svg">
<path d="M0 0H37V5H0V0Z" fill="white"/>
<path d="M0 8H37V13H0V8Z" fill="white"/>
<rect y="16" width="7" height="5" fill="white"/>
<rect y="24" width="37" height="5" fill="white"/>
<rect x="14" y="8" width="23" height="5" fill="#FFE713"/>
<rect x="30" y="16" width="7" height="5" fill="#FFE713"/>
<rect x="2" y="16" width="5" height="5" fill="#FFE713"/>
<rect width="4" height="5" fill="#FFE713"/>
<rect x="23" y="24" width="11" height="5" fill="#FFE713"/>
<rect y="32" width="37" height="5" fill="white"/>
<rect x="13" y="32" width="11" height="5" fill="#FFE713"/>
<path d="M10.0932 20H10.518L10.828 18.5278C10.9257 18.0762 11.143 17.832 11.5727 17.832C11.6898 17.832 11.8339 17.8613 11.89 17.8833L11.9804 17.4805C11.9242 17.4536 11.8119 17.4243 11.6874 17.4243C11.3676 17.4243 11.1332 17.5684 10.9745 17.7979H10.9648L11.0356 17.4609H10.6327L10.0932 20Z" fill="white"/>
<path d="M13.005 20.0488C13.5495 20.0488 13.9938 19.6875 14.1256 19.2188H13.7082C13.5934 19.4946 13.3517 19.6753 13.0099 19.6753C12.6339 19.6753 12.3922 19.3872 12.3922 18.9185C12.3922 18.8892 12.3922 18.8599 12.3947 18.8306H14.2208C14.2379 18.7207 14.2428 18.5938 14.2428 18.4888C14.2428 17.8271 13.8498 17.417 13.2174 17.417C12.4801 17.417 11.9601 18.0957 11.9601 18.9307C11.9601 19.5752 12.3141 20.0488 13.005 20.0488ZM12.4484 18.4912C12.5509 18.0957 12.817 17.7881 13.2125 17.7881C13.6398 17.7881 13.8107 18.1006 13.8107 18.4229C13.8107 18.4448 13.8107 18.4692 13.8082 18.4912H12.4484Z" fill="white"/>
<path d="M14.6986 20.8496L14.9867 19.4922H14.9989C15.0966 19.8096 15.4188 20.0439 15.8143 20.0439C16.5297 20.0439 17.0766 19.3945 17.0766 18.5156C17.0766 17.8491 16.7177 17.417 16.1391 17.417C15.8095 17.417 15.4921 17.6074 15.3383 17.8711H15.3309L15.4188 17.4609H15.0014L14.2811 20.8496H14.6986ZM15.8046 19.668C15.4091 19.668 15.1527 19.3726 15.1527 18.9551C15.1527 18.3398 15.4896 17.7905 16.0414 17.7905C16.4296 17.7905 16.6591 18.0713 16.6591 18.5449C16.6591 19.1992 16.2904 19.668 15.8046 19.668Z" fill="white"/>
<path d="M18.7531 17.417C18.0133 17.417 17.4518 18.0811 17.4518 18.9282C17.4518 19.6021 17.8668 20.0439 18.5162 20.0439C19.256 20.0439 19.8175 19.3799 19.8175 18.5327C19.8175 17.8589 19.4025 17.417 18.7531 17.417ZM18.5162 19.6704C18.1281 19.6704 17.8815 19.3726 17.8815 18.916C17.8815 18.2764 18.2477 17.7905 18.7531 17.7905C19.1412 17.7905 19.3878 18.0884 19.3878 18.5449C19.3878 19.1846 19.0216 19.6704 18.5162 19.6704Z" fill="white"/>
<path d="M20.0365 20H20.4613L20.7714 18.5278C20.869 18.0762 21.0863 17.832 21.516 17.832C21.6332 17.832 21.7772 17.8613 21.8334 17.8833L21.9237 17.4805C21.8675 17.4536 21.7552 17.4243 21.6307 17.4243C21.3109 17.4243 21.0765 17.5684 20.9178 17.7979H20.9081L20.9789 17.4609H20.576L20.0365 20Z" fill="white"/>
<path d="M22.7872 20.0195C22.8727 20.0195 22.9581 20.0098 23.0436 19.9951L23.1193 19.6411C23.0631 19.6484 23.0192 19.6509 22.9435 19.6509C22.7433 19.6509 22.6139 19.5728 22.6139 19.3799C22.6139 19.3164 22.6236 19.2407 22.6432 19.1504L22.9288 17.8125H23.4733L23.5465 17.4609H23.0021L23.1363 16.8286H22.7091L22.5797 17.4609H22.2013L22.128 17.8125H22.504L22.1891 19.2822C22.172 19.3604 22.1647 19.4336 22.1647 19.4995C22.1647 19.8486 22.4332 20.0195 22.7872 20.0195Z" fill="white"/>
<path d="M24.4076 17.0093C24.5565 17.0093 24.6737 16.8896 24.6737 16.7432C24.6737 16.5942 24.5565 16.4771 24.4076 16.4771C24.2611 16.4771 24.1415 16.5942 24.1415 16.7432C24.1415 16.8896 24.2611 17.0093 24.4076 17.0093ZM23.4969 20H23.9266L24.4662 17.4609H24.0365L23.4969 20Z" fill="white"/>
<path d="M25.0025 20L25.2101 19.0308L25.5665 18.7524L26.2086 20H26.6847L25.9107 18.5083L27.1778 17.4609H26.6334L25.3224 18.5376H25.3126L25.752 16.4771H25.3224L24.5728 20H25.0025Z" fill="white"/>
</svg>
