<svg width="367" height="210" viewBox="0 0 367 210" fill="none" xmlns="http://www.w3.org/2000/svg">
<g>
<path d="M85.792 21.6C79.456 19.104 74.464 17.856 70.816 17.856C64.096 17.856 58.816 19.488 54.976 22.752C51.136 26.016 49.216 31.776 49.216 40.032V60.768H77.728V76.32H49.216V198.432H26.752V76.32H4V60.768H26.752V39.744C26.752 26.112 30.496 16.128 37.984 9.792C45.472 3.264 54.112 0 63.904 0C73.696 0 82.336 1.248 89.824 3.74399L85.792 21.6Z" fill="white"/>
<path d="M91.7747 2.30399H114.527V198.432H91.7747V2.30399Z" fill="white"/>
<path d="M185.454 183.168C204.462 183.168 215.31 174.816 217.998 158.112H241.326C239.214 171.936 233.07 182.688 222.894 190.368C212.91 197.856 200.43 201.6 185.454 201.6C167.021 201.6 152.046 195.072 140.526 182.016C129.006 168.768 123.245 151.2 123.245 129.312C123.245 107.424 129.006 89.952 140.526 76.896C152.238 63.84 167.694 57.312 186.894 57.312C206.286 57.312 220.686 64.8 230.094 79.776C239.694 94.752 243.053 112.992 240.174 134.496H145.998C145.998 148.704 149.454 160.416 156.366 169.632C163.278 178.656 172.974 183.168 185.454 183.168ZM202.158 78.912C197.742 76.608 192.366 75.456 186.03 75.456C174.318 75.456 165.006 79.488 158.094 87.552C151.374 95.424 147.438 105.312 146.286 117.216H219.726C219.726 98.016 213.87 85.248 202.158 78.912Z" fill="white"/>
<path d="M362.184 198.432H334.536L295.08 146.304L257.64 198.432H229.992L282.12 129.6L229.992 60.48H257.64L297.096 112.32L334.824 60.48H362.472L309.768 129.6L362.184 198.432Z" fill="white"/>
</g>
</svg>
