<?xml version="1.0" encoding="UTF-8" standalone="no"?>
<!-- Created by AtomCrusher for the English Wikipedia -->
<svg xmlns="http://www.w3.org/2000/svg" version="1.1" width="316" height="316">
  <path d="M 36.5,95 36.5,208 l 35.75,0 0,-38 45.5,0 0,38 35.75,0 0,-113 -35.75,0 0,38 -45.5,0 0,-38 -35.75,0 z" style="fill:#ffffff" />
  <path d="m 219.5,92 c -33.137,0 -60,26.863 -60,60 0,33.137 26.863,60 60,60 7.134,0 13.965,-1.278 20.313,-3.563 l 14.281,16.5 26.813,-23.031 L 268.125,187.125 C 275.273,177.248 279.5,165.124 279.5,152 c 0,-33.137 -26.863,-60 -60,-60 z" style="fill:#ffffff" />
  <path d="m 244.5,153.493 c 0,13.816 -11.193,25.016 -25,25.016 -13.807,0 -25,-11.2 -25,-25.016 0,-13.816 11.193,-25.016 25,-25.016 13.807,0 25,11.2 25,25.016 z" style="fill:#fed030" />
  <rect width="45.5" height="38" x="72.25" y="95" style="fill:#7175db" />
  <rect width="45.5" height="38" x="72.25" y="170" style="fill:#e7296d" />
</svg>
