<?xml version="1.0" encoding="UTF-8"?>
<svg width="338px" height="338px" viewBox="0 0 338 338" version="1.1" xmlns="http://www.w3.org/2000/svg" xmlns:xlink="http://www.w3.org/1999/xlink">
    <!-- Generator: Sketch 46.2 (44496) - http://www.bohemiancoding.com/sketch -->
    <title>Combined Shape</title>
    <desc>Created with Sketch.</desc>
    <defs></defs>
    <g id="Page-1" stroke="none" stroke-width="1" fill="none" fill-rule="evenodd">
        <g id="Artboard" transform="translate(-259.000000, -139.000000)" fill="#FFFFFF">
            <g id="Group" transform="translate(259.000000, 139.000000)">
                <path d="M158.282083,160.125122 L135.2,98.4 L103,98.4 L49,241.2 L80.6,241.2 L91.8,209.4 L145.2,209.4 L156,241.2 L188.6,241.2 L184.653828,230.647315 C188.797679,233.813122 193.40071,236.49734 198.462963,238.7 C207.19634,242.500019 217.029575,244.4 227.962963,244.4 C236.763007,244.4 244.829593,243.06668 252.162963,240.4 C259.496333,237.73332 265.896269,233.866692 271.362963,228.8 C276.829657,223.733308 281.229613,217.600036 284.562963,210.4 C287.896313,203.199964 289.962959,195.133378 290.762963,186.2 L260.362963,186.2 C259.162957,195.800048 255.86299,203.533304 250.462963,209.4 C245.062936,215.266696 237.563011,218.2 227.962963,218.2 C220.896261,218.2 214.896321,216.833347 209.962963,214.1 C205.029605,211.366653 201.029645,207.733356 197.962963,203.2 C194.896281,198.666644 192.66297,193.566695 191.262963,187.9 C189.862956,182.233305 189.162963,176.40003 189.162963,170.4 C189.162963,164.133302 189.862956,158.066696 191.262963,152.2 C192.66297,146.333304 194.896281,141.100023 197.962963,136.5 C201.029645,131.899977 205.029605,128.233347 209.962963,125.5 C214.896321,122.766653 220.896261,121.4 227.962963,121.4 C231.829649,121.4 235.529612,122.033327 239.062963,123.3 C242.596314,124.566673 245.762949,126.333322 248.562963,128.6 C251.362977,130.866678 253.696287,133.499985 255.562963,136.5 C257.429639,139.500015 258.629627,142.799982 259.162963,146.4 L289.562963,146.4 C288.629625,138.133292 286.362981,130.800032 282.762963,124.4 C279.162945,117.999968 274.596324,112.633355 269.062963,108.3 C263.529602,103.966645 257.262998,100.666678 250.262963,98.4 C243.262928,96.133322 235.829669,95 227.962963,95 C217.029575,95 207.19634,96.933314 198.462963,100.8 C189.729586,104.666686 182.362993,109.999966 176.362963,116.8 C170.362933,123.600034 165.762979,131.566621 162.562963,140.7 C160.415313,146.82975 158.988358,153.304761 158.282083,160.125122 Z M89,0 L249,0 L249,0 C298.153343,-9.02932258e-15 338,39.8466573 338,89 L338,249 C338,298.153343 298.153343,338 249,338 L89,338 C39.8466573,338 6.01954838e-15,298.153343 0,249 L0,89 L0,89 C-6.01954838e-15,39.8466573 39.8466573,9.02932258e-15 89,0 L89,0 Z M100,186 L118.6,133.6 L119,133.6 L137,186 L100,186 Z" id="Combined-Shape"></path>
            </g>
        </g>
    </g>
</svg>